u2194_ 350 - 160.ufo
<glyph name="dollar" format="1">
  <advance width="1021"/>
  <unicode hex="0024"/>
  <outline>
    <contour>
      <point x="873" y="-4" type="line" smooth="yes"/>
      <point x="978" y="43"/>
      <point x="1003" y="162"/>
      <point x="927" y="248" type="curve" smooth="yes"/>
      <point x="745" y="454" type="line"/>
      <point x="793" y="433"/>
      <point x="851" y="435"/>
      <point x="897" y="464" type="curve" smooth="yes"/>
      <point x="969" y="511"/>
      <point x="991" y="613"/>
      <point x="945" y="686" type="curve" smooth="yes"/>
      <point x="821" y="877" type="line" smooth="yes"/>
      <point x="795" y="917"/>
      <point x="736" y="950"/>
      <point x="688" y="951" type="curve" smooth="yes"/>
      <point x="556" y="952" type="line"/>
      <point x="541" y="956"/>
      <point x="526" y="959"/>
      <point x="510" y="959" type="curve" smooth="yes"/>
      <point x="495" y="959"/>
      <point x="480" y="957"/>
      <point x="466" y="953" type="curve"/>
      <point x="343" y="954" type="line" smooth="yes"/>
      <point x="278" y="954"/>
      <point x="209" y="904"/>
      <point x="189" y="841" type="curve" smooth="yes"/>
      <point x="87" y="511" type="line" smooth="yes"/>
      <point x="66" y="445"/>
      <point x="87" y="380"/>
      <point x="136" y="340" type="curve"/>
      <point x="114" y="329"/>
      <point x="94" y="313"/>
      <point x="79" y="292" type="curve" smooth="yes"/>
      <point x="29" y="222"/>
      <point x="46" y="119"/>
      <point x="116" y="69" type="curve" smooth="yes"/>
      <point x="396" y="-131" type="line" smooth="yes"/>
      <point x="419" y="-148"/>
      <point x="451" y="-157"/>
      <point x="483" y="-159" type="curve"/>
      <point x="492" y="-160"/>
      <point x="501" y="-161"/>
      <point x="510" y="-161" type="curve" smooth="yes"/>
      <point x="550" y="-161"/>
      <point x="587" y="-145"/>
      <point x="616" y="-120" type="curve"/>
    </contour>
  </outline>
</glyph>
<glyph name="percent" format="1">
  <advance width="1018"/>
  <unicode hex="0025"/>
  <outline>
    <contour>
      <point x="609" y="-161" type="curve" smooth="yes"/>
      <point x="695" y="-161"/>
      <point x="769" y="-87"/>
      <point x="769" y="-1" type="curve" smooth="yes"/>
      <point x="769" y="9" type="line" smooth="yes"/>
      <point x="769" y="95"/>
      <point x="695" y="169"/>
      <point x="609" y="169" type="curve" smooth="yes"/>
      <point x="572" y="169"/>
      <point x="537" y="155"/>
      <point x="510" y="133" type="curve"/>
      <point x="937" y="703" type="line" smooth="yes"/>
      <point x="989" y="772"/>
      <point x="974" y="875"/>
      <point x="905" y="927" type="curve" smooth="yes"/>
      <point x="836" y="979"/>
      <point x="733" y="964"/>
      <point x="681" y="895" type="curve" smooth="yes"/>
      <point x="557" y="730" type="line"/>
      <point x="565" y="748"/>
      <point x="569" y="768"/>
      <point x="569" y="789" type="curve" smooth="yes"/>
      <point x="569" y="799" type="line" smooth="yes"/>
      <point x="569" y="885"/>
      <point x="495" y="959"/>
      <point x="409" y="959" type="curve" smooth="yes"/>
      <point x="323" y="959"/>
      <point x="249" y="885"/>
      <point x="249" y="799" type="curve" smooth="yes"/>
      <point x="249" y="789" type="line" smooth="yes"/>
      <point x="249" y="703"/>
      <point x="323" y="629"/>
      <point x="409" y="629" type="curve" smooth="yes"/>
      <point x="446" y="629"/>
      <point x="481" y="643"/>
      <point x="508" y="665" type="curve"/>
      <point x="81" y="95" type="line" smooth="yes"/>
      <point x="29" y="26"/>
      <point x="44" y="-77"/>
      <point x="113" y="-129" type="curve" smooth="yes"/>
      <point x="182" y="-181"/>
      <point x="285" y="-166"/>
      <point x="337" y="-97" type="curve" smooth="yes"/>
      <point x="461" y="68" type="line"/>
      <point x="453" y="50"/>
      <point x="449" y="30"/>
      <point x="449" y="9" type="curve" smooth="yes"/>
      <point x="449" y="-1" type="line" smooth="yes"/>
      <point x="449" y="-87"/>
      <point x="523" y="-161"/>
    </contour>
  </outline>
</glyph>
<glyph name="ampersand" format="1">
  <advance width="999"/>
  <unicode hex="0026"/>
  <outline>
    <contour>
      <point x="886" y="-127" type="curve" smooth="yes"/>
      <point x="955" y="-75"/>
      <point x="970" y="28"/>
      <point x="918" y="97" type="curve" smooth="yes"/>
      <point x="830" y="214" type="line"/>
      <point x="902" y="287" type="line" smooth="yes"/>
      <point x="963" y="348"/>
      <point x="963" y="452"/>
      <point x="902" y="513" type="curve" smooth="yes"/>
      <point x="881" y="534"/>
      <point x="855" y="548"/>
      <point x="828" y="554" type="curve"/>
      <point x="819" y="576"/>
      <point x="805" y="596"/>
      <point x="786" y="615" type="curve" smooth="yes"/>
      <point x="536" y="856" type="line" smooth="yes"/>
      <point x="432" y="957"/>
      <point x="281" y="903"/>
      <point x="266" y="758" type="curve" smooth="yes"/>
      <point x="240" y="517" type="line"/>
      <point x="222" y="500"/>
      <point x="207" y="480"/>
      <point x="199" y="461" type="curve" smooth="yes"/>
      <point x="65" y="138" type="line" smooth="yes"/>
      <point x="11" y="6"/>
      <point x="112" y="-112"/>
      <point x="251" y="-79" type="curve" smooth="yes"/>
      <point x="586" y="2" type="line" smooth="yes"/>
      <point x="587" y="2"/>
      <point x="588" y="3"/>
      <point x="589" y="3" type="curve"/>
      <point x="662" y="-95" type="line" smooth="yes"/>
      <point x="714" y="-164"/>
      <point x="817" y="-179"/>
    </contour>
  </outline>
</glyph>
<glyph name="asterisk" format="1">
  <advance width="818"/>
  <unicode hex="002A"/>
  <outline>
    <contour>
      <point x="400" y="210" type="curve" smooth="yes"/>
      <point x="406" y="219" type="line"/>
      <point x="417" y="225" type="line"/>
      <point x="431" y="206" type="line" smooth="yes"/>
      <point x="483" y="137"/>
      <point x="586" y="122"/>
      <point x="655" y="174" type="curve" smooth="yes"/>
      <point x="716" y="220"/>
      <point x="735" y="305"/>
      <point x="703" y="372" type="curve"/>
      <point x="764" y="417"/>
      <point x="787" y="505"/>
      <point x="752" y="575" type="curve" smooth="yes"/>
      <point x="716" y="644"/>
      <point x="633" y="677"/>
      <point x="561" y="655" type="curve"/>
      <point x="578" y="710"/>
      <point x="565" y="773"/>
      <point x="522" y="815" type="curve" smooth="yes"/>
      <point x="461" y="876"/>
      <point x="357" y="876"/>
      <point x="296" y="815" type="curve" smooth="yes"/>
      <point x="96" y="615" type="line" smooth="yes"/>
      <point x="35" y="554"/>
      <point x="35" y="450"/>
      <point x="96" y="389" type="curve" smooth="yes"/>
      <point x="104" y="381"/>
      <point x="113" y="373"/>
      <point x="123" y="367" type="curve"/>
      <point x="93" y="299"/>
      <point x="115" y="215"/>
      <point x="177" y="171" type="curve" smooth="yes"/>
      <point x="248" y="121"/>
      <point x="351" y="139"/>
    </contour>
  </outline>
</glyph>
<glyph name="zero" format="1">
  <advance width="1020"/>
  <unicode hex="0030"/>
  <outline>
    <contour>
      <point x="427" y="-157" type="curve" smooth="yes"/>
      <point x="770" y="-121" type="line" smooth="yes"/>
      <point x="837" y="-114"/>
      <point x="901" y="-54"/>
      <point x="911" y="12" type="curve" smooth="yes"/>
      <point x="968" y="356" type="line" smooth="yes"/>
      <point x="970" y="368"/>
      <point x="970" y="387"/>
      <point x="969" y="399" type="curve" smooth="yes"/>
      <point x="933" y="738" type="line" smooth="yes"/>
      <point x="930" y="763"/>
      <point x="920" y="788"/>
      <point x="904" y="810" type="curve"/>
      <point x="894" y="830"/>
      <point x="879" y="848"/>
      <point x="861" y="862" type="curve" smooth="yes"/>
      <point x="827" y="887"/>
      <point x="786" y="896"/>
      <point x="746" y="892" type="curve"/>
      <point x="476" y="958" type="line" smooth="yes"/>
      <point x="424" y="970"/>
      <point x="353" y="948"/>
      <point x="318" y="907" type="curve" smooth="yes"/>
      <point x="90" y="647" type="line" smooth="yes"/>
      <point x="68" y="622"/>
      <point x="50" y="575"/>
      <point x="50" y="542" type="curve" smooth="yes"/>
      <point x="50" y="195" type="line" smooth="yes"/>
      <point x="50" y="160"/>
      <point x="69" y="113"/>
      <point x="94" y="86" type="curve"/>
      <point x="83" y="28"/>
      <point x="105" y="-34"/>
      <point x="153" y="-72" type="curve" smooth="yes"/>
      <point x="192" y="-101"/>
      <point x="241" y="-109"/>
      <point x="286" y="-99" type="curve"/>
      <point x="292" y="-105" type="line"/>
      <point x="325" y="-141"/>
      <point x="375" y="-163"/>
    </contour>
    <contour>
      <point x="370" y="479" type="line"/>
      <point x="370" y="482" type="line"/>
      <point x="385" y="499" type="line"/>
    </contour>
    <contour>
      <point x="542" y="177" type="line"/>
      <point x="634" y="298" type="line"/>
      <point x="615" y="184" type="line"/>
    </contour>
  </outline>
</glyph>
<glyph name="one" format="1">
  <advance width="1020"/>
  <unicode hex="0031"/>
  <outline>
    <contour>
      <point x="210" y="-159" type="curve" smooth="yes"/>
      <point x="810" y="-159" type="line" smooth="yes"/>
      <point x="896" y="-159"/>
      <point x="970" y="-85"/>
      <point x="970" y="1" type="curve" smooth="yes"/>
      <point x="970" y="87"/>
      <point x="896" y="161"/>
      <point x="810" y="161" type="curve" smooth="yes"/>
      <point x="621" y="161" type="line"/>
      <point x="640" y="188" type="line" smooth="yes"/>
      <point x="657" y="211"/>
      <point x="670" y="253"/>
      <point x="670" y="281" type="curve" smooth="yes"/>
      <point x="670" y="631" type="line" smooth="yes"/>
      <point x="670" y="728"/>
      <point x="591" y="800"/>
      <point x="494" y="790" type="curve" smooth="yes"/>
      <point x="194" y="760" type="line" smooth="yes"/>
      <point x="108" y="752"/>
      <point x="42" y="671"/>
      <point x="51" y="585" type="curve" smooth="yes"/>
      <point x="59" y="499"/>
      <point x="140" y="433"/>
      <point x="226" y="442" type="curve" smooth="yes"/>
      <point x="350" y="454" type="line"/>
      <point x="350" y="332" type="line"/>
      <point x="228" y="161" type="line"/>
      <point x="210" y="161" type="line" smooth="yes"/>
      <point x="124" y="161"/>
      <point x="50" y="87"/>
      <point x="50" y="1" type="curve" smooth="yes"/>
      <point x="50" y="-85"/>
      <point x="124" y="-159"/>
    </contour>
  </outline>
</glyph>
<glyph name="two" format="1">
  <advance width="1025"/>
  <unicode hex="0032"/>
  <outline>
    <contour>
      <point x="462" y="-160" type="curve" smooth="yes"/>
      <point x="812" y="-160" type="line" smooth="yes"/>
      <point x="898" y="-160"/>
      <point x="972" y="-86"/>
      <point x="972" y="0" type="curve" smooth="yes"/>
      <point x="972" y="86"/>
      <point x="898" y="160"/>
      <point x="812" y="160" type="curve" smooth="yes"/>
      <point x="526" y="160" type="line"/>
      <point x="482" y="201" type="line"/>
      <point x="590" y="260" type="line"/>
      <point x="888" y="426" type="line" smooth="yes"/>
      <point x="990" y="482"/>
      <point x="1005" y="605"/>
      <point x="918" y="684" type="curve" smooth="yes"/>
      <point x="659" y="919" type="line" smooth="yes"/>
      <point x="621" y="953"/>
      <point x="551" y="968"/>
      <point x="502" y="952" type="curve" smooth="yes"/>
      <point x="173" y="843" type="line" smooth="yes"/>
      <point x="121" y="826"/>
      <point x="72" y="767"/>
      <point x="65" y="711" type="curve" smooth="yes"/>
      <point x="53" y="620" type="line" smooth="yes"/>
      <point x="42" y="535"/>
      <point x="106" y="452"/>
      <point x="192" y="441" type="curve" smooth="yes"/>
      <point x="274" y="431"/>
      <point x="354" y="490"/>
      <point x="369" y="571" type="curve"/>
      <point x="514" y="619" type="line"/>
      <point x="538" y="597" type="line"/>
      <point x="434" y="540" type="line"/>
      <point x="136" y="374" type="line" smooth="yes"/>
      <point x="35" y="319"/>
      <point x="20" y="197"/>
      <point x="104" y="118" type="curve" smooth="yes"/>
      <point x="352" y="-116" type="line" smooth="yes"/>
      <point x="378" y="-140"/>
      <point x="427" y="-160"/>
    </contour>
  </outline>
</glyph>
<glyph name="three" format="1">
  <advance width="1017"/>
  <unicode hex="0033"/>
  <outline>
    <contour>
      <point x="552" y="-146" type="curve" smooth="yes"/>
      <point x="867" y="-11" type="line" smooth="yes"/>
      <point x="972" y="34"/>
      <point x="1000" y="152"/>
      <point x="926" y="240" type="curve" smooth="yes"/>
      <point x="789" y="401" type="line"/>
      <point x="926" y="562" type="line" smooth="yes"/>
      <point x="1000" y="650"/>
      <point x="972" y="768"/>
      <point x="867" y="813" type="curve" smooth="yes"/>
      <point x="552" y="948" type="line" smooth="yes"/>
      <point x="506" y="968"/>
      <point x="437" y="960"/>
      <point x="396" y="931" type="curve" smooth="yes"/>
      <point x="116" y="731" type="line" smooth="yes"/>
      <point x="46" y="681"/>
      <point x="29" y="578"/>
      <point x="79" y="508" type="curve" smooth="yes"/>
      <point x="129" y="438"/>
      <point x="232" y="421"/>
      <point x="302" y="471" type="curve" smooth="yes"/>
      <point x="509" y="618" type="line"/>
      <point x="542" y="604" type="line"/>
      <point x="457" y="505" type="line" smooth="yes"/>
      <point x="408" y="447"/>
      <point x="408" y="355"/>
      <point x="457" y="297" type="curve" smooth="yes"/>
      <point x="542" y="198" type="line"/>
      <point x="509" y="184" type="line"/>
      <point x="302" y="331" type="line" smooth="yes"/>
      <point x="232" y="381"/>
      <point x="129" y="364"/>
      <point x="79" y="294" type="curve" smooth="yes"/>
      <point x="29" y="224"/>
      <point x="46" y="121"/>
      <point x="116" y="71" type="curve" smooth="yes"/>
      <point x="396" y="-129" type="line" smooth="yes"/>
      <point x="437" y="-158"/>
      <point x="506" y="-166"/>
    </contour>
  </outline>
</glyph>
<glyph name="four" format="1">
  <advance width="826"/>
  <unicode hex="0034"/>
  <outline>
    <contour>
      <point x="616" y="-159" type="curve" smooth="yes"/>
      <point x="702" y="-159"/>
      <point x="776" y="-85"/>
      <point x="776" y="1" type="curve" smooth="yes"/>
      <point x="776" y="600" type="line" smooth="yes"/>
      <point x="776" y="686"/>
      <point x="702" y="760"/>
      <point x="616" y="760" type="curve" smooth="yes"/>
      <point x="530" y="760"/>
      <point x="456" y="686"/>
      <point x="456" y="600" type="curve" smooth="yes"/>
      <point x="456" y="430" type="line"/>
      <point x="386" y="605" type="line"/>
      <point x="453" y="718" type="line" smooth="yes"/>
      <point x="498" y="792"/>
      <point x="472" y="893"/>
      <point x="398" y="937" type="curve" smooth="yes"/>
      <point x="324" y="982"/>
      <point x="223" y="956"/>
      <point x="179" y="882" type="curve" smooth="yes"/>
      <point x="70" y="701" type="line" smooth="yes"/>
      <point x="48" y="664"/>
      <point x="43" y="600"/>
      <point x="59" y="559" type="curve" smooth="yes"/>
      <point x="188" y="240" type="line" smooth="yes"/>
      <point x="197" y="216"/>
      <point x="222" y="185"/>
      <point x="243" y="170" type="curve" smooth="yes"/>
      <point x="456" y="18" type="line"/>
      <point x="456" y="1" type="line" smooth="yes"/>
      <point x="456" y="-85"/>
      <point x="530" y="-159"/>
    </contour>
  </outline>
</glyph>
<glyph name="five" format="1">
  <advance width="1019"/>
  <unicode hex="0035"/>
  <outline>
    <contour>
      <point x="552" y="-146" type="curve" smooth="yes"/>
      <point x="867" y="-11" type="line" smooth="yes"/>
      <point x="972" y="34"/>
      <point x="1000" y="152"/>
      <point x="926" y="240" type="curve" smooth="yes"/>
      <point x="701" y="505" type="line" smooth="yes"/>
      <point x="675" y="536"/>
      <point x="620" y="561"/>
      <point x="579" y="561" type="curve" smooth="yes"/>
      <point x="397" y="561" type="line"/>
      <point x="400" y="608" type="line"/>
      <point x="602" y="641" type="line"/>
      <point x="809" y="641" type="line" smooth="yes"/>
      <point x="895" y="641"/>
      <point x="969" y="715"/>
      <point x="969" y="801" type="curve" smooth="yes"/>
      <point x="969" y="887"/>
      <point x="895" y="961"/>
      <point x="809" y="961" type="curve" smooth="yes"/>
      <point x="589" y="961" type="line" smooth="yes"/>
      <point x="582" y="961"/>
      <point x="570" y="960"/>
      <point x="563" y="959" type="curve" smooth="yes"/>
      <point x="221" y="904" type="line" smooth="yes"/>
      <point x="150" y="892"/>
      <point x="90" y="825"/>
      <point x="87" y="754" type="curve" smooth="yes"/>
      <point x="69" y="409" type="line" smooth="yes"/>
      <point x="67" y="373"/>
      <point x="77" y="340"/>
      <point x="95" y="313" type="curve"/>
      <point x="89" y="307"/>
      <point x="84" y="301"/>
      <point x="79" y="294" type="curve" smooth="yes"/>
      <point x="29" y="224"/>
      <point x="46" y="121"/>
      <point x="116" y="71" type="curve" smooth="yes"/>
      <point x="396" y="-129" type="line" smooth="yes"/>
      <point x="437" y="-158"/>
      <point x="506" y="-166"/>
    </contour>
    <contour>
      <point x="542" y="198" type="line"/>
      <point x="509" y="184" type="line"/>
      <point x="428" y="241" type="line"/>
      <point x="505" y="241" type="line"/>
    </contour>
  </outline>
</glyph>
<glyph name="six" format="1">
  <advance width="1021"/>
  <unicode hex="0036"/>
  <outline>
    <contour>
      <point x="700" y="485" type="line" smooth="yes"/>
      <point x="701" y="484"/>
      <point x="703" y="482"/>
      <point x="704" y="481" type="curve"/>
      <point x="570" y="541" type="line"/>
      <point x="459" y="620" type="line"/>
      <point x="546" y="632" type="line"/>
    </contour>
    <contour>
      <point x="700" y="-105" type="curve" smooth="yes"/>
      <point x="928" y="155" type="line" smooth="yes"/>
      <point x="1003" y="241"/>
      <point x="977" y="360"/>
      <point x="872" y="406" type="curve" smooth="yes"/>
      <point x="789" y="443" type="line"/>
      <point x="838" y="437"/>
      <point x="890" y="453"/>
      <point x="926" y="491" type="curve" smooth="yes"/>
      <point x="985" y="553"/>
      <point x="983" y="657"/>
      <point x="920" y="717" type="curve" smooth="yes"/>
      <point x="710" y="917" type="line" smooth="yes"/>
      <point x="679" y="946"/>
      <point x="620" y="965"/>
      <point x="578" y="959" type="curve" smooth="yes"/>
      <point x="231" y="911" type="line" smooth="yes"/>
      <point x="165" y="901"/>
      <point x="104" y="840"/>
      <point x="95" y="773" type="curve" smooth="yes"/>
      <point x="86" y="702" type="line"/>
      <point x="84" y="699"/>
      <point x="82" y="697"/>
      <point x="80" y="694" type="curve" smooth="yes"/>
      <point x="46" y="647"/>
      <point x="43" y="586"/>
      <point x="65" y="536" type="curve"/>
      <point x="51" y="431" type="line" smooth="yes"/>
      <point x="50" y="422"/>
      <point x="50" y="406"/>
      <point x="51" y="396" type="curve" smooth="yes"/>
      <point x="82" y="49" type="line" smooth="yes"/>
      <point x="88" y="-18"/>
      <point x="147" y="-82"/>
      <point x="213" y="-94" type="curve" smooth="yes"/>
      <point x="551" y="-156" type="line" smooth="yes"/>
      <point x="600" y="-165"/>
      <point x="667" y="-142"/>
    </contour>
    <contour>
      <point x="397" y="271" type="line" smooth="yes"/>
      <point x="404" y="266"/>
      <point x="417" y="258"/>
      <point x="425" y="255" type="curve" smooth="yes"/>
      <point x="544" y="202" type="line"/>
      <point x="520" y="175" type="line"/>
      <point x="390" y="199" type="line"/>
      <point x="382" y="281" type="line"/>
    </contour>
  </outline>
</glyph>
<glyph name="seven" format="1">
  <advance width="995"/>
  <unicode hex="0037"/>
  <outline>
    <contour>
      <point x="543" y="-92" type="curve" smooth="yes"/>
      <point x="920" y="475" type="line" smooth="yes"/>
      <point x="962" y="538"/>
      <point x="951" y="631"/>
      <point x="894" y="682" type="curve" smooth="yes"/>
      <point x="637" y="916" type="line" smooth="yes"/>
      <point x="611" y="938"/>
      <point x="563" y="957"/>
      <point x="529" y="957" type="curve" smooth="yes"/>
      <point x="210" y="957" type="line" smooth="yes"/>
      <point x="124" y="957"/>
      <point x="50" y="883"/>
      <point x="50" y="797" type="curve" smooth="yes"/>
      <point x="50" y="711"/>
      <point x="124" y="637"/>
      <point x="210" y="637" type="curve" smooth="yes"/>
      <point x="468" y="637" type="line"/>
      <point x="577" y="538" type="line"/>
      <point x="465" y="369" type="line"/>
      <point x="277" y="86" type="line" smooth="yes"/>
      <point x="229" y="14"/>
      <point x="249" y="-88"/>
      <point x="321" y="-136" type="curve" smooth="yes"/>
      <point x="393" y="-184"/>
      <point x="495" y="-164"/>
    </contour>
  </outline>
</glyph>
<glyph name="eight" format="1">
  <advance width="1029"/>
  <unicode hex="0038"/>
  <outline>
    <contour>
      <point x="645" y="-124" type="curve" smooth="yes"/>
      <point x="915" y="97" type="line" smooth="yes"/>
      <point x="1007" y="172"/>
      <point x="998" y="297"/>
      <point x="896" y="358" type="curve" smooth="yes"/>
      <point x="811" y="409" type="line"/>
      <point x="939" y="604" type="line" smooth="yes"/>
      <point x="1000" y="697"/>
      <point x="961" y="809"/>
      <point x="855" y="844" type="curve" smooth="yes"/>
      <point x="524" y="952" type="line" smooth="yes"/>
      <point x="476" y="968"/>
      <point x="406" y="954"/>
      <point x="368" y="920" type="curve" smooth="yes"/>
      <point x="109" y="692" type="line" smooth="yes"/>
      <point x="21" y="615"/>
      <point x="33" y="491"/>
      <point x="135" y="433" type="curve" smooth="yes"/>
      <point x="219" y="385" type="line"/>
      <point x="93" y="223" type="line" smooth="yes"/>
      <point x="23" y="133"/>
      <point x="55" y="16"/>
      <point x="162" y="-25" type="curve" smooth="yes"/>
      <point x="487" y="-149" type="line" smooth="yes"/>
      <point x="535" y="-168"/>
      <point x="606" y="-156"/>
    </contour>
    <contour>
      <point x="535" y="572" type="line"/>
      <point x="488" y="599" type="line"/>
      <point x="511" y="620" type="line"/>
      <point x="557" y="604" type="line"/>
    </contour>
    <contour>
      <point x="515" y="183" type="line"/>
      <point x="478" y="197" type="line"/>
      <point x="499" y="223" type="line"/>
      <point x="536" y="200" type="line"/>
    </contour>
  </outline>
</glyph>
<glyph name="nine" format="1">
  <advance width="1021"/>
  <unicode hex="0039"/>
  <outline>
    <contour>
      <point x="624" y="530" type="line" smooth="yes"/>
      <point x="617" y="535"/>
      <point x="604" y="543"/>
      <point x="596" y="546" type="curve" smooth="yes"/>
      <point x="477" y="599" type="line"/>
      <point x="501" y="626" type="line"/>
      <point x="631" y="602" type="line"/>
      <point x="639" y="520" type="line"/>
    </contour>
    <contour>
      <point x="443" y="-158" type="curve" smooth="yes"/>
      <point x="790" y="-110" type="line" smooth="yes"/>
      <point x="856" y="-100"/>
      <point x="917" y="-39"/>
      <point x="926" y="28" type="curve" smooth="yes"/>
      <point x="935" y="99" type="line"/>
      <point x="937" y="102"/>
      <point x="939" y="104"/>
      <point x="941" y="107" type="curve" smooth="yes"/>
      <point x="975" y="154"/>
      <point x="978" y="215"/>
      <point x="956" y="265" type="curve"/>
      <point x="970" y="370" type="line" smooth="yes"/>
      <point x="971" y="379"/>
      <point x="971" y="395"/>
      <point x="970" y="405" type="curve" smooth="yes"/>
      <point x="939" y="752" type="line" smooth="yes"/>
      <point x="933" y="819"/>
      <point x="874" y="883"/>
      <point x="808" y="895" type="curve" smooth="yes"/>
      <point x="470" y="957" type="line" smooth="yes"/>
      <point x="421" y="966"/>
      <point x="354" y="943"/>
      <point x="321" y="906" type="curve" smooth="yes"/>
      <point x="93" y="646" type="line" smooth="yes"/>
      <point x="18" y="560"/>
      <point x="44" y="441"/>
      <point x="149" y="395" type="curve" smooth="yes"/>
      <point x="232" y="358" type="line"/>
      <point x="183" y="364"/>
      <point x="131" y="348"/>
      <point x="95" y="310" type="curve" smooth="yes"/>
      <point x="36" y="248"/>
      <point x="38" y="144"/>
      <point x="101" y="84" type="curve" smooth="yes"/>
      <point x="311" y="-116" type="line" smooth="yes"/>
      <point x="342" y="-145"/>
      <point x="401" y="-164"/>
    </contour>
    <contour>
      <point x="321" y="316" type="line" smooth="yes"/>
      <point x="320" y="317"/>
      <point x="318" y="319"/>
      <point x="317" y="320" type="curve"/>
      <point x="451" y="260" type="line"/>
      <point x="562" y="181" type="line"/>
      <point x="475" y="169" type="line"/>
    </contour>
  </outline>
</glyph>
<glyph name="semicolon" format="1">
  <advance width="519"/>
  <unicode hex="003B"/>
  <outline>
    <contour>
      <point x="309" y="423" type="curve" smooth="yes"/>
      <point x="395" y="423"/>
      <point x="469" y="497"/>
      <point x="469" y="583" type="curve" smooth="yes"/>
      <point x="469" y="592" type="line" smooth="yes"/>
      <point x="469" y="678"/>
      <point x="395" y="752"/>
      <point x="309" y="752" type="curve" smooth="yes"/>
      <point x="223" y="752"/>
      <point x="149" y="678"/>
      <point x="149" y="592" type="curve" smooth="yes"/>
      <point x="149" y="583" type="line" smooth="yes"/>
      <point x="149" y="497"/>
      <point x="223" y="423"/>
    </contour>
    <contour>
      <point x="381" y="335" type="curve" smooth="yes"/>
      <point x="303" y="374"/>
      <point x="205" y="341"/>
      <point x="166" y="264" type="curve" smooth="yes"/>
      <point x="66" y="64" type="line" smooth="yes"/>
      <point x="27" y="-14"/>
      <point x="60" y="-112"/>
      <point x="137" y="-151" type="curve" smooth="yes"/>
      <point x="215" y="-190"/>
      <point x="313" y="-157"/>
      <point x="352" y="-80" type="curve" smooth="yes"/>
      <point x="452" y="120" type="line" smooth="yes"/>
      <point x="491" y="198"/>
      <point x="458" y="296"/>
    </contour>
  </outline>
</glyph>
<glyph name="less" format="1">
  <advance width="736"/>
  <unicode hex="003C"/>
  <outline>
    <contour>
      <point x="670" y="31" type="curve" smooth="yes"/>
      <point x="709" y="109"/>
      <point x="676" y="207"/>
      <point x="599" y="246" type="curve" smooth="yes"/>
      <point x="571" y="260" type="line"/>
      <point x="506" y="314" type="line"/>
      <point x="599" y="360" type="line" smooth="yes"/>
      <point x="676" y="399"/>
      <point x="709" y="497"/>
      <point x="670" y="575" type="curve" smooth="yes"/>
      <point x="631" y="652"/>
      <point x="533" y="685"/>
      <point x="455" y="646" type="curve" smooth="yes"/>
      <point x="144" y="491" type="line" smooth="yes"/>
      <point x="33" y="435"/>
      <point x="18" y="304"/>
      <point x="113" y="225" type="curve" smooth="yes"/>
      <point x="380" y="2" type="line" smooth="yes"/>
      <point x="388" y="-4"/>
      <point x="402" y="-13"/>
      <point x="411" y="-18" type="curve" smooth="yes"/>
      <point x="455" y="-40" type="line" smooth="yes"/>
      <point x="533" y="-79"/>
      <point x="631" y="-46"/>
    </contour>
  </outline>
</glyph>
<glyph name="greater" format="1">
  <advance width="736"/>
  <unicode hex="003E"/>
  <outline>
    <contour>
      <point x="281" y="-23" type="curve" smooth="yes"/>
      <point x="325" y="-1" type="line" smooth="yes"/>
      <point x="334" y="4"/>
      <point x="348" y="13"/>
      <point x="356" y="19" type="curve" smooth="yes"/>
      <point x="623" y="242" type="line" smooth="yes"/>
      <point x="718" y="321"/>
      <point x="703" y="452"/>
      <point x="592" y="508" type="curve" smooth="yes"/>
      <point x="281" y="663" type="line" smooth="yes"/>
      <point x="203" y="702"/>
      <point x="105" y="669"/>
      <point x="66" y="592" type="curve" smooth="yes"/>
      <point x="27" y="514"/>
      <point x="60" y="416"/>
      <point x="137" y="377" type="curve" smooth="yes"/>
      <point x="230" y="331" type="line"/>
      <point x="165" y="277" type="line"/>
      <point x="137" y="263" type="line" smooth="yes"/>
      <point x="60" y="224"/>
      <point x="27" y="126"/>
      <point x="66" y="48" type="curve" smooth="yes"/>
      <point x="105" y="-29"/>
      <point x="203" y="-62"/>
    </contour>
  </outline>
</glyph>
<glyph name="question" format="1">
  <advance width="870"/>
  <unicode hex="003F"/>
  <outline>
    <contour>
      <point x="409" y="-160" type="curve" smooth="yes"/>
      <point x="495" y="-160"/>
      <point x="569" y="-86"/>
      <point x="569" y="0" type="curve" smooth="yes"/>
      <point x="569" y="11" type="line" smooth="yes"/>
      <point x="569" y="45"/>
      <point x="558" y="77"/>
      <point x="539" y="103" type="curve"/>
      <point x="772" y="328" type="line" smooth="yes"/>
      <point x="804" y="360"/>
      <point x="825" y="422"/>
      <point x="819" y="467" type="curve" smooth="yes"/>
      <point x="769" y="808" type="line" smooth="yes"/>
      <point x="756" y="892"/>
      <point x="677" y="953"/>
      <point x="592" y="943" type="curve" smooth="yes"/>
      <point x="246" y="903" type="line" smooth="yes"/>
      <point x="192" y="897"/>
      <point x="133" y="851"/>
      <point x="114" y="800" type="curve" smooth="yes"/>
      <point x="60" y="655" type="line" smooth="yes"/>
      <point x="30" y="574"/>
      <point x="73" y="479"/>
      <point x="154" y="449" type="curve" smooth="yes"/>
      <point x="235" y="419"/>
      <point x="330" y="462"/>
      <point x="360" y="543" type="curve" smooth="yes"/>
      <point x="380" y="596" type="line"/>
      <point x="475" y="607" type="line"/>
      <point x="490" y="501" type="line"/>
      <point x="298" y="315" type="line" smooth="yes"/>
      <point x="241" y="260"/>
      <point x="235" y="168"/>
      <point x="281" y="105" type="curve"/>
      <point x="261" y="78"/>
      <point x="249" y="46"/>
      <point x="249" y="11" type="curve" smooth="yes"/>
      <point x="249" y="0" type="line" smooth="yes"/>
      <point x="249" y="-86"/>
      <point x="323" y="-160"/>
    </contour>
  </outline>
</glyph>
<glyph name="at" format="1">
  <advance width="1019"/>
  <unicode hex="0040"/>
  <outline>
    <contour>
      <point x="769" y="-59" type="curve" smooth="yes"/>
      <point x="772" y="-31"/>
      <point x="767" y="-4"/>
      <point x="757" y="20" type="curve"/>
      <point x="820" y="28"/>
      <point x="873" y="74"/>
      <point x="889" y="145" type="curve" smooth="yes"/>
      <point x="966" y="483" type="line" smooth="yes"/>
      <point x="977" y="532"/>
      <point x="957" y="599"/>
      <point x="920" y="634" type="curve" smooth="yes"/>
      <point x="668" y="874" type="line" smooth="yes"/>
      <point x="633" y="907"/>
      <point x="566" y="925"/>
      <point x="519" y="913" type="curve" smooth="yes"/>
      <point x="187" y="830" type="line" smooth="yes"/>
      <point x="124" y="814"/>
      <point x="70" y="748"/>
      <point x="67" y="682" type="curve" smooth="yes"/>
      <point x="50" y="337" type="line" smooth="yes"/>
      <point x="50" y="327"/>
      <point x="51" y="311"/>
      <point x="52" y="302" type="curve" smooth="yes"/>
      <point x="112" y="-34" type="line" smooth="yes"/>
      <point x="124" y="-99"/>
      <point x="187" y="-158"/>
      <point x="253" y="-165" type="curve" smooth="yes"/>
      <point x="593" y="-201" type="line" smooth="yes"/>
      <point x="679" y="-210"/>
      <point x="760" y="-145"/>
    </contour>
    <contour>
      <point x="380" y="530" type="line"/>
      <point x="381" y="548" type="line"/>
      <point x="399" y="553" type="line"/>
    </contour>
    <contour>
      <point x="430" y="138" type="line"/>
      <point x="406" y="141" type="line"/>
      <point x="405" y="149" type="line"/>
    </contour>
  </outline>
</glyph>
<glyph name="C" format="1">
  <advance width="1019"/>
  <unicode hex="0043"/>
  <outline>
    <contour>
      <point x="381" y="-161" type="curve" smooth="yes"/>
      <point x="724" y="-147" type="line" smooth="yes"/>
      <point x="776" y="-145"/>
      <point x="837" y="-105"/>
      <point x="861" y="-59" type="curve" smooth="yes"/>
      <point x="953" y="126" type="line" smooth="yes"/>
      <point x="992" y="204"/>
      <point x="959" y="303"/>
      <point x="882" y="341" type="curve" smooth="yes"/>
      <point x="804" y="380"/>
      <point x="705" y="347"/>
      <point x="667" y="270" type="curve" smooth="yes"/>
      <point x="616" y="169" type="line"/>
      <point x="468" y="162" type="line"/>
      <point x="370" y="345" type="line"/>
      <point x="371" y="550" type="line"/>
      <point x="511" y="614" type="line"/>
      <point x="717" y="467" type="line" smooth="yes"/>
      <point x="788" y="418"/>
      <point x="891" y="435"/>
      <point x="941" y="505" type="curve" smooth="yes"/>
      <point x="990" y="576"/>
      <point x="973" y="679"/>
      <point x="903" y="729" type="curve" smooth="yes"/>
      <point x="621" y="929" type="line" smooth="yes"/>
      <point x="579" y="958"/>
      <point x="508" y="965"/>
      <point x="461" y="943" type="curve" smooth="yes"/>
      <point x="145" y="798" type="line" smooth="yes"/>
      <point x="93" y="774"/>
      <point x="52" y="709"/>
      <point x="51" y="653" type="curve" smooth="yes"/>
      <point x="50" y="306" type="line" smooth="yes"/>
      <point x="50" y="283"/>
      <point x="58" y="249"/>
      <point x="69" y="229" type="curve" smooth="yes"/>
      <point x="234" y="-77" type="line" smooth="yes"/>
      <point x="260" y="-126"/>
      <point x="326" y="-164"/>
    </contour>
  </outline>
</glyph>
<glyph name="F" format="1">
  <advance width="1020"/>
  <unicode hex="0046"/>
  <outline>
    <contour>
      <point x="372" y="-1" type="curve" smooth="yes"/>
      <point x="372" y="85" type="line"/>
      <point x="568" y="292" type="line" smooth="yes"/>
      <point x="625" y="352"/>
      <point x="625" y="450"/>
      <point x="569" y="511" type="curve" smooth="yes"/>
      <point x="483" y="603" type="line"/>
      <point x="512" y="617" type="line"/>
      <point x="719" y="471" type="line" smooth="yes"/>
      <point x="790" y="421"/>
      <point x="892" y="439"/>
      <point x="942" y="510" type="curve" smooth="yes"/>
      <point x="992" y="581"/>
      <point x="974" y="683"/>
      <point x="903" y="733" type="curve" smooth="yes"/>
      <point x="621" y="931" type="line" smooth="yes"/>
      <point x="580" y="960"/>
      <point x="509" y="967"/>
      <point x="463" y="946" type="curve" smooth="yes"/>
      <point x="148" y="803" type="line" smooth="yes"/>
      <point x="42" y="755"/>
      <point x="18" y="633"/>
      <point x="97" y="548" type="curve" smooth="yes"/>
      <point x="232" y="402" type="line"/>
      <point x="96" y="258" type="line" smooth="yes"/>
      <point x="72" y="233"/>
      <point x="53" y="184"/>
      <point x="53" y="149" type="curve" smooth="yes"/>
      <point x="52" y="1" type="line" smooth="yes"/>
      <point x="52" y="-86"/>
      <point x="125" y="-160"/>
      <point x="211" y="-160" type="curve" smooth="yes"/>
      <point x="298" y="-160"/>
      <point x="372" y="-87"/>
    </contour>
  </outline>
</glyph>
<glyph name="H" format="1">
  <advance width="1020"/>
  <unicode hex="0048"/>
  <outline>
    <contour>
      <point x="810" y="-164" type="curve" smooth="yes"/>
      <point x="896" y="-164"/>
      <point x="970" y="-90"/>
      <point x="970" y="-4" type="curve" smooth="yes"/>
      <point x="970" y="696" type="line" smooth="yes"/>
      <point x="970" y="873"/>
      <point x="756" y="929"/>
      <point x="670" y="774" type="curve" smooth="yes"/>
      <point x="547" y="552" type="line"/>
      <point x="370" y="541" type="line"/>
      <point x="370" y="736" type="line"/>
      <point x="370" y="796" type="line" smooth="yes"/>
      <point x="370" y="882"/>
      <point x="296" y="956"/>
      <point x="210" y="956" type="curve" smooth="yes"/>
      <point x="124" y="956"/>
      <point x="50" y="882"/>
      <point x="50" y="796" type="curve" smooth="yes"/>
      <point x="50" y="736" type="line"/>
      <point x="50" y="385" type="line"/>
      <point x="52" y="45" type="line" smooth="yes"/>
      <point x="53" y="-150"/>
      <point x="318" y="-183"/>
      <point x="367" y="6" type="curve" smooth="yes"/>
      <point x="423" y="223" type="line"/>
      <point x="650" y="237" type="line"/>
      <point x="650" y="-4" type="line" smooth="yes"/>
      <point x="650" y="-90"/>
      <point x="724" y="-164"/>
    </contour>
  </outline>
</glyph>
<glyph name="I" format="1">
  <advance width="1019"/>
  <unicode hex="0049"/>
  <outline>
    <contour>
      <point x="210" y="-161" type="curve" smooth="yes"/>
      <point x="560" y="-161" type="line" smooth="yes"/>
      <point x="661" y="-161"/>
      <point x="733" y="-78"/>
      <point x="718" y="22" type="curve" smooth="yes"/>
      <point x="670" y="352" type="line"/>
      <point x="664" y="571" type="line"/>
      <point x="868" y="650" type="line" smooth="yes"/>
      <point x="948" y="681"/>
      <point x="990" y="776"/>
      <point x="959" y="857" type="curve" smooth="yes"/>
      <point x="928" y="937"/>
      <point x="833" y="979"/>
      <point x="752" y="948" type="curve" smooth="yes"/>
      <point x="444" y="829" type="line" smooth="yes"/>
      <point x="386" y="807"/>
      <point x="340" y="738"/>
      <point x="341" y="676" type="curve" smooth="yes"/>
      <point x="350" y="335" type="line" smooth="yes"/>
      <point x="350" y="329"/>
      <point x="351" y="321"/>
      <point x="352" y="315" type="curve" smooth="yes"/>
      <point x="375" y="159" type="line"/>
      <point x="210" y="159" type="line" smooth="yes"/>
      <point x="124" y="159"/>
      <point x="50" y="85"/>
      <point x="50" y="-1" type="curve" smooth="yes"/>
      <point x="50" y="-87"/>
      <point x="124" y="-161"/>
    </contour>
  </outline>
</glyph>
<glyph name="J" format="1">
  <advance width="1020"/>
  <unicode hex="004A"/>
  <outline>
    <contour>
      <point x="269" y="-150" type="curve" smooth="yes"/>
      <point x="562" y="-34" type="line" smooth="yes"/>
      <point x="617" y="-12"/>
      <point x="662" y="53"/>
      <point x="663" y="112" type="curve" smooth="yes"/>
      <point x="670" y="456" type="line" smooth="yes"/>
      <point x="670" y="463"/>
      <point x="669" y="475"/>
      <point x="668" y="483" type="curve" smooth="yes"/>
      <point x="645" y="639" type="line"/>
      <point x="810" y="639" type="line" smooth="yes"/>
      <point x="896" y="639"/>
      <point x="970" y="713"/>
      <point x="970" y="799" type="curve" smooth="yes"/>
      <point x="970" y="885"/>
      <point x="896" y="959"/>
      <point x="810" y="959" type="curve" smooth="yes"/>
      <point x="460" y="959" type="line" smooth="yes"/>
      <point x="359" y="959"/>
      <point x="287" y="876"/>
      <point x="302" y="776" type="curve" smooth="yes"/>
      <point x="350" y="449" type="line"/>
      <point x="345" y="225" type="line"/>
      <point x="151" y="148" type="line" smooth="yes"/>
      <point x="71" y="116"/>
      <point x="29" y="21"/>
      <point x="61" y="-60" type="curve" smooth="yes"/>
      <point x="93" y="-140"/>
      <point x="188" y="-182"/>
    </contour>
  </outline>
</glyph>
<glyph name="M" format="1">
  <advance width="1020"/>
  <unicode hex="004D"/>
  <outline>
    <contour>
      <point x="810" y="-161" type="curve" smooth="yes"/>
      <point x="896" y="-161"/>
      <point x="970" y="-87"/>
      <point x="970" y="-1" type="curve" smooth="yes"/>
      <point x="970" y="699" type="line" smooth="yes"/>
      <point x="970" y="835"/>
      <point x="842" y="906"/>
      <point x="727" y="836" type="curve" smooth="yes"/>
      <point x="557" y="732" type="line"/>
      <point x="439" y="894" type="line" smooth="yes"/>
      <point x="354" y="1010"/>
      <point x="199" y="983"/>
      <point x="157" y="845" type="curve" smooth="yes"/>
      <point x="57" y="515" type="line" smooth="yes"/>
      <point x="53" y="503"/>
      <point x="50" y="482"/>
      <point x="50" y="469" type="curve" smooth="yes"/>
      <point x="50" y="-1" type="line" smooth="yes"/>
      <point x="50" y="-87"/>
      <point x="124" y="-161"/>
      <point x="210" y="-161" type="curve" smooth="yes"/>
      <point x="296" y="-161"/>
      <point x="370" y="-87"/>
      <point x="370" y="-1" type="curve" smooth="yes"/>
      <point x="370" y="445" type="line"/>
      <point x="370" y="446" type="line"/>
      <point x="386" y="424" type="line" smooth="yes"/>
      <point x="434" y="359"/>
      <point x="529" y="340"/>
      <point x="598" y="382" type="curve" smooth="yes"/>
      <point x="650" y="414" type="line"/>
      <point x="650" y="-1" type="line" smooth="yes"/>
      <point x="650" y="-87"/>
      <point x="724" y="-161"/>
    </contour>
  </outline>
</glyph>
<glyph name="O" format="1">
  <advance width="1021"/>
  <unicode hex="004F"/>
  <outline>
    <contour>
      <point x="412" y="-161" type="curve" smooth="yes"/>
      <point x="604" y="-161" type="line" smooth="yes"/>
      <point x="610" y="-161"/>
      <point x="617" y="-161"/>
      <point x="623" y="-160" type="curve"/>
      <point x="671" y="-157"/>
      <point x="716" y="-134"/>
      <point x="745" y="-93" type="curve" smooth="yes"/>
      <point x="942" y="187" type="line" smooth="yes"/>
      <point x="958" y="210"/>
      <point x="971" y="251"/>
      <point x="971" y="279" type="curve" smooth="yes"/>
      <point x="971" y="627" type="line" smooth="yes"/>
      <point x="971" y="679"/>
      <point x="934" y="741"/>
      <point x="890" y="766" type="curve" smooth="yes"/>
      <point x="588" y="938" type="line" smooth="yes"/>
      <point x="543" y="964"/>
      <point x="470" y="963"/>
      <point x="426" y="936" type="curve" smooth="yes"/>
      <point x="128" y="757" type="line" smooth="yes"/>
      <point x="85" y="731"/>
      <point x="50" y="669"/>
      <point x="50" y="619" type="curve" smooth="yes"/>
      <point x="50" y="279" type="line" smooth="yes"/>
      <point x="50" y="250"/>
      <point x="64" y="209"/>
      <point x="80" y="185" type="curve" smooth="yes"/>
      <point x="282" y="-95" type="line" smooth="yes"/>
      <point x="309" y="-131"/>
      <point x="367" y="-161"/>
    </contour>
    <contour>
      <point x="531" y="159" type="line"/>
      <point x="494" y="159" type="line"/>
      <point x="370" y="331" type="line"/>
      <point x="370" y="529" type="line"/>
      <point x="511" y="614" type="line"/>
      <point x="651" y="534" type="line"/>
      <point x="651" y="330" type="line"/>
    </contour>
  </outline>
</glyph>
<glyph name="T" format="1">
  <advance width="732"/>
  <unicode hex="0054"/>
  <outline>
    <contour>
      <point x="510" y="-160" type="curve" smooth="yes"/>
      <point x="596" y="-160"/>
      <point x="670" y="-86"/>
      <point x="670" y="0" type="curve" smooth="yes"/>
      <point x="670" y="350" type="line"/>
      <point x="682" y="691" type="line" smooth="yes"/>
      <point x="685" y="757"/>
      <point x="636" y="828"/>
      <point x="573" y="849" type="curve" smooth="yes"/>
      <point x="260" y="952" type="line" smooth="yes"/>
      <point x="178" y="979"/>
      <point x="85" y="932"/>
      <point x="58" y="850" type="curve" smooth="yes"/>
      <point x="31" y="768"/>
      <point x="78" y="675"/>
      <point x="160" y="648" type="curve" smooth="yes"/>
      <point x="358" y="582" type="line"/>
      <point x="350" y="350" type="line"/>
      <point x="350" y="0" type="line" smooth="yes"/>
      <point x="350" y="-86"/>
      <point x="424" y="-160"/>
    </contour>
  </outline>
</glyph>
<glyph name="U" format="1">
  <advance width="1019"/>
  <unicode hex="0055"/>
  <outline>
    <contour>
      <point x="519" y="-154" type="curve" smooth="yes"/>
      <point x="845" y="-53" type="line" smooth="yes"/>
      <point x="906" y="-35"/>
      <point x="956" y="31"/>
      <point x="958" y="95" type="curve" smooth="yes"/>
      <point x="969" y="449" type="line"/>
      <point x="969" y="799" type="line" smooth="yes"/>
      <point x="969" y="885"/>
      <point x="895" y="959"/>
      <point x="809" y="959" type="curve" smooth="yes"/>
      <point x="723" y="959"/>
      <point x="649" y="885"/>
      <point x="649" y="799" type="curve" smooth="yes"/>
      <point x="649" y="449" type="line"/>
      <point x="642" y="219" type="line"/>
      <point x="510" y="178" type="line"/>
      <point x="370" y="301" type="line"/>
      <point x="370" y="799" type="line" smooth="yes"/>
      <point x="370" y="885"/>
      <point x="296" y="959"/>
      <point x="210" y="959" type="curve" smooth="yes"/>
      <point x="124" y="959"/>
      <point x="50" y="885"/>
      <point x="50" y="799" type="curve" smooth="yes"/>
      <point x="50" y="229" type="line" smooth="yes"/>
      <point x="50" y="189"/>
      <point x="74" y="135"/>
      <point x="104" y="109" type="curve" smooth="yes"/>
      <point x="366" y="-121" type="line" smooth="yes"/>
      <point x="403" y="-154"/>
      <point x="472" y="-168"/>
    </contour>
  </outline>
</glyph>
<glyph name="V" format="1">
  <advance width="1020"/>
  <unicode hex="0056"/>
  <outline>
    <contour>
      <point x="824" y="-57" type="curve" smooth="yes"/>
      <point x="957" y="258" type="line" smooth="yes"/>
      <point x="964" y="274"/>
      <point x="970" y="302"/>
      <point x="970" y="320" type="curve" smooth="yes"/>
      <point x="970" y="800" type="line" smooth="yes"/>
      <point x="970" y="886"/>
      <point x="896" y="960"/>
      <point x="810" y="960" type="curve" smooth="yes"/>
      <point x="724" y="960"/>
      <point x="650" y="886"/>
      <point x="650" y="800" type="curve" smooth="yes"/>
      <point x="650" y="352" type="line"/>
      <point x="594" y="220" type="line"/>
      <point x="484" y="271" type="line"/>
      <point x="370" y="489" type="line"/>
      <point x="370" y="800" type="line" smooth="yes"/>
      <point x="370" y="886"/>
      <point x="296" y="960"/>
      <point x="210" y="960" type="curve" smooth="yes"/>
      <point x="124" y="960"/>
      <point x="50" y="886"/>
      <point x="50" y="800" type="curve" smooth="yes"/>
      <point x="50" y="450" type="line" smooth="yes"/>
      <point x="50" y="428"/>
      <point x="58" y="395"/>
      <point x="68" y="376" type="curve" smooth="yes"/>
      <point x="226" y="74" type="line" smooth="yes"/>
      <point x="240" y="48"/>
      <point x="273" y="16"/>
      <point x="301" y="3" type="curve" smooth="yes"/>
      <point x="610" y="-140" type="line" smooth="yes"/>
      <point x="693" y="-178"/>
      <point x="789" y="-141"/>
    </contour>
  </outline>
</glyph>
<glyph name="W" format="1">
  <advance width="1020"/>
  <unicode hex="0057"/>
  <outline>
    <contour>
      <point x="863" y="-46" type="curve" smooth="yes"/>
      <point x="963" y="284" type="line" smooth="yes"/>
      <point x="967" y="296"/>
      <point x="970" y="317"/>
      <point x="970" y="330" type="curve" smooth="yes"/>
      <point x="970" y="800" type="line" smooth="yes"/>
      <point x="970" y="886"/>
      <point x="896" y="960"/>
      <point x="810" y="960" type="curve" smooth="yes"/>
      <point x="724" y="960"/>
      <point x="650" y="886"/>
      <point x="650" y="800" type="curve" smooth="yes"/>
      <point x="650" y="354" type="line"/>
      <point x="650" y="354" type="line"/>
      <point x="635" y="374" type="line" smooth="yes"/>
      <point x="587" y="440"/>
      <point x="492" y="459"/>
      <point x="422" y="417" type="curve" smooth="yes"/>
      <point x="370" y="385" type="line"/>
      <point x="370" y="800" type="line" smooth="yes"/>
      <point x="370" y="886"/>
      <point x="296" y="960"/>
      <point x="210" y="960" type="curve" smooth="yes"/>
      <point x="124" y="960"/>
      <point x="50" y="886"/>
      <point x="50" y="800" type="curve" smooth="yes"/>
      <point x="50" y="100" type="line"/>
      <point x="50" y="-36"/>
      <point x="177" y="-107"/>
      <point x="293" y="-37" type="curve" smooth="yes"/>
      <point x="463" y="67" type="line"/>
      <point x="581" y="-94" type="line" smooth="yes"/>
      <point x="666" y="-211"/>
      <point x="821" y="-184"/>
    </contour>
  </outline>
</glyph>
<glyph name="bracketleft" format="1">
  <advance width="720"/>
  <unicode hex="005B"/>
  <outline>
    <contour>
      <point x="420" y="-160" type="curve" smooth="yes"/>
      <point x="510" y="-160" type="line" smooth="yes"/>
      <point x="596" y="-160"/>
      <point x="670" y="-86"/>
      <point x="670" y="0" type="curve" smooth="yes"/>
      <point x="670" y="86"/>
      <point x="596" y="160"/>
      <point x="510" y="160" type="curve" smooth="yes"/>
      <point x="500" y="160" type="line"/>
      <point x="370" y="333" type="line"/>
      <point x="370" y="529" type="line"/>
      <point x="592" y="663" type="line" smooth="yes"/>
      <point x="666" y="707"/>
      <point x="692" y="808"/>
      <point x="647" y="882" type="curve" smooth="yes"/>
      <point x="603" y="956"/>
      <point x="502" y="982"/>
      <point x="428" y="937" type="curve" smooth="yes"/>
      <point x="128" y="757" type="line" smooth="yes"/>
      <point x="85" y="731"/>
      <point x="50" y="670"/>
      <point x="50" y="620" type="curve"/>
      <point x="50" y="280" type="line" smooth="yes"/>
      <point x="50" y="251"/>
      <point x="64" y="208"/>
      <point x="82" y="184" type="curve" smooth="yes"/>
      <point x="292" y="-96" type="line" smooth="yes"/>
      <point x="319" y="-131"/>
      <point x="376" y="-160"/>
    </contour>
  </outline>
</glyph>
<glyph name="backslash" format="1">
  <advance width="1018"/>
  <unicode hex="005C"/>
  <outline>
    <contour>
      <point x="905" y="-129" type="curve" smooth="yes"/>
      <point x="974" y="-77"/>
      <point x="989" y="26"/>
      <point x="937" y="95" type="curve" smooth="yes"/>
      <point x="337" y="895" type="line" smooth="yes"/>
      <point x="285" y="964"/>
      <point x="182" y="979"/>
      <point x="113" y="927" type="curve" smooth="yes"/>
      <point x="44" y="875"/>
      <point x="29" y="772"/>
      <point x="81" y="703" type="curve" smooth="yes"/>
      <point x="681" y="-97" type="line" smooth="yes"/>
      <point x="733" y="-166"/>
      <point x="836" y="-181"/>
    </contour>
  </outline>
</glyph>
<glyph name="bracketright" format="1">
  <advance width="720"/>
  <unicode hex="005D"/>
  <outline>
    <contour>
      <point x="210" y="-161" type="curve" smooth="yes"/>
      <point x="300" y="-161" type="line" smooth="yes"/>
      <point x="344" y="-161"/>
      <point x="401" y="-132"/>
      <point x="428" y="-97" type="curve" smooth="yes"/>
      <point x="638" y="183" type="line" smooth="yes"/>
      <point x="656" y="207"/>
      <point x="670" y="250"/>
      <point x="670" y="279" type="curve" smooth="yes"/>
      <point x="670" y="619" type="line" smooth="yes"/>
      <point x="670" y="669"/>
      <point x="635" y="730"/>
      <point x="592" y="756" type="curve" smooth="yes"/>
      <point x="292" y="936" type="line" smooth="yes"/>
      <point x="218" y="981"/>
      <point x="117" y="955"/>
      <point x="73" y="881" type="curve" smooth="yes"/>
      <point x="28" y="807"/>
      <point x="54" y="706"/>
      <point x="128" y="662" type="curve" smooth="yes"/>
      <point x="350" y="528" type="line"/>
      <point x="350" y="332" type="line"/>
      <point x="220" y="159" type="line"/>
      <point x="210" y="159" type="line" smooth="yes"/>
      <point x="124" y="159"/>
      <point x="50" y="85"/>
      <point x="50" y="-1" type="curve" smooth="yes"/>
      <point x="50" y="-87"/>
      <point x="124" y="-161"/>
    </contour>
  </outline>
</glyph>
<glyph name="asciicircum" format="1">
  <advance width="1018"/>
  <unicode hex="005E"/>
  <outline>
    <contour>
      <point x="942" y="413" type="curve" smooth="yes"/>
      <point x="990" y="485"/>
      <point x="970" y="587"/>
      <point x="898" y="635" type="curve" smooth="yes"/>
      <point x="874" y="651" type="line"/>
      <point x="574" y="829" type="line" smooth="yes"/>
      <point x="526" y="857"/>
      <point x="450" y="855"/>
      <point x="404" y="824" type="curve" smooth="yes"/>
      <point x="120" y="635" type="line" smooth="yes"/>
      <point x="48" y="587"/>
      <point x="28" y="485"/>
      <point x="76" y="413" type="curve" smooth="yes"/>
      <point x="124" y="341"/>
      <point x="226" y="321"/>
      <point x="298" y="369" type="curve" smooth="yes"/>
      <point x="497" y="502" type="line"/>
      <point x="711" y="375" type="line"/>
      <point x="720" y="369" type="line" smooth="yes"/>
      <point x="792" y="321"/>
      <point x="894" y="341"/>
    </contour>
  </outline>
</glyph>
<glyph name="a" format="1">
  <advance width="1020"/>
  <unicode hex="0061"/>
  <outline>
    <contour>
      <point x="810" y="-164" type="curve" smooth="yes"/>
      <point x="896" y="-164"/>
      <point x="970" y="-90"/>
      <point x="970" y="-4" type="curve" smooth="yes"/>
      <point x="970" y="499" type="line" smooth="yes"/>
      <point x="970" y="524"/>
      <point x="959" y="562"/>
      <point x="946" y="583" type="curve" smooth="yes"/>
      <point x="765" y="879" type="line" smooth="yes"/>
      <point x="738" y="924"/>
      <point x="672" y="958"/>
      <point x="620" y="955" type="curve" smooth="yes"/>
      <point x="285" y="936" type="line" smooth="yes"/>
      <point x="220" y="932"/>
      <point x="154" y="878"/>
      <point x="139" y="815" type="curve" smooth="yes"/>
      <point x="55" y="478" type="line" smooth="yes"/>
      <point x="52" y="466"/>
      <point x="50" y="448"/>
      <point x="50" y="437" type="curve" smooth="yes"/>
      <point x="55" y="96" type="line" smooth="yes"/>
      <point x="57" y="-58"/>
      <point x="219" y="-124"/>
      <point x="328" y="-14" type="curve" smooth="yes"/>
      <point x="527" y="186" type="line"/>
      <point x="650" y="186" type="line"/>
      <point x="650" y="-4" type="line" smooth="yes"/>
      <point x="650" y="-90"/>
      <point x="724" y="-164"/>
    </contour>
    <contour>
      <point x="460" y="506" type="line" smooth="yes"/>
      <point x="438" y="506"/>
      <point x="411" y="498"/>
      <point x="387" y="486" type="curve"/>
      <point x="421" y="623" type="line"/>
      <point x="542" y="630" type="line"/>
      <point x="618" y="506" type="line"/>
    </contour>
  </outline>
</glyph>
<glyph name="b" format="1">
  <advance width="1015"/>
  <unicode hex="0062"/>
  <outline>
    <contour>
      <point x="532" y="-146" type="curve" smooth="yes"/>
      <point x="857" y="-24" type="line" smooth="yes"/>
      <point x="964" y="15"/>
      <point x="998" y="132"/>
      <point x="929" y="222" type="curve" smooth="yes"/>
      <point x="796" y="397" type="line"/>
      <point x="934" y="610" type="line" smooth="yes"/>
      <point x="995" y="703"/>
      <point x="955" y="815"/>
      <point x="849" y="849" type="curve" smooth="yes"/>
      <point x="517" y="956" type="line" smooth="yes"/>
      <point x="468" y="972"/>
      <point x="398" y="957"/>
      <point x="360" y="922" type="curve" smooth="yes"/>
      <point x="102" y="687" type="line" smooth="yes"/>
      <point x="73" y="660"/>
      <point x="50" y="607"/>
      <point x="50" y="568" type="curve" smooth="yes"/>
      <point x="50" y="222" type="line" smooth="yes"/>
      <point x="50" y="180"/>
      <point x="76" y="125"/>
      <point x="109" y="98" type="curve" smooth="yes"/>
      <point x="375" y="-120" type="line" smooth="yes"/>
      <point x="414" y="-152"/>
      <point x="484" y="-164"/>
    </contour>
    <contour>
      <point x="523" y="564" type="line"/>
      <point x="442" y="564" type="line"/>
      <point x="507" y="623" type="line"/>
      <point x="552" y="609" type="line"/>
    </contour>
    <contour>
      <point x="544" y="200" type="line"/>
      <point x="506" y="186" type="line"/>
      <point x="435" y="244" type="line"/>
      <point x="511" y="244" type="line"/>
    </contour>
  </outline>
</glyph>
<glyph name="d" format="1">
  <advance width="1020"/>
  <unicode hex="0064"/>
  <outline>
    <contour>
      <point x="353" y="-161" type="curve" smooth="yes"/>
      <point x="697" y="-154" type="line" smooth="yes"/>
      <point x="757" y="-153"/>
      <point x="823" y="-105"/>
      <point x="844" y="-48" type="curve" smooth="yes"/>
      <point x="960" y="275" type="line" smooth="yes"/>
      <point x="966" y="289"/>
      <point x="970" y="314"/>
      <point x="970" y="329" type="curve" smooth="yes"/>
      <point x="970" y="589" type="line" smooth="yes"/>
      <point x="970" y="596"/>
      <point x="970" y="602"/>
      <point x="969" y="609" type="curve"/>
      <point x="966" y="656"/>
      <point x="943" y="701"/>
      <point x="903" y="729" type="curve" smooth="yes"/>
      <point x="623" y="929" type="line" smooth="yes"/>
      <point x="582" y="958"/>
      <point x="512" y="966"/>
      <point x="466" y="946" type="curve" smooth="yes"/>
      <point x="146" y="806" type="line" smooth="yes"/>
      <point x="93" y="782"/>
      <point x="50" y="717"/>
      <point x="50" y="659" type="curve"/>
      <point x="50" y="319" type="line" smooth="yes"/>
      <point x="50" y="301"/>
      <point x="56" y="272"/>
      <point x="63" y="255" type="curve" smooth="yes"/>
      <point x="203" y="-65" type="line" smooth="yes"/>
      <point x="227" y="-119"/>
      <point x="294" y="-162"/>
    </contour>
    <contour>
      <point x="454" y="161" type="line"/>
      <point x="370" y="352" type="line"/>
      <point x="370" y="554" type="line"/>
      <point x="511" y="616" type="line"/>
      <point x="650" y="517" type="line"/>
      <point x="650" y="357" type="line"/>
      <point x="580" y="164" type="line"/>
    </contour>
  </outline>
</glyph>
<glyph name="f" format="1">
  <advance width="1019"/>
  <unicode hex="0066"/>
  <outline>
    <contour>
      <point x="410" y="564" type="line" smooth="yes"/>
      <point x="399" y="564"/>
      <point x="388" y="563"/>
      <point x="378" y="561" type="curve"/>
      <point x="510" y="621" type="line"/>
      <point x="591" y="564" type="line"/>
    </contour>
    <contour>
      <point x="370" y="-7" type="curve" smooth="yes"/>
      <point x="387" y="246" type="line"/>
      <point x="394" y="245"/>
      <point x="402" y="244"/>
      <point x="410" y="244" type="curve" smooth="yes"/>
      <point x="610" y="244" type="line" smooth="yes"/>
      <point x="696" y="244"/>
      <point x="770" y="318"/>
      <point x="770" y="404" type="curve" smooth="yes"/>
      <point x="770" y="421"/>
      <point x="767" y="438"/>
      <point x="762" y="454" type="curve"/>
      <point x="826" y="434"/>
      <point x="900" y="457"/>
      <point x="940" y="514" type="curve" smooth="yes"/>
      <point x="990" y="585"/>
      <point x="972" y="687"/>
      <point x="901" y="737" type="curve" smooth="yes"/>
      <point x="619" y="935" type="line" smooth="yes"/>
      <point x="578" y="964"/>
      <point x="507" y="971"/>
      <point x="461" y="950" type="curve" smooth="yes"/>
      <point x="146" y="807" type="line" smooth="yes"/>
      <point x="91" y="782"/>
      <point x="49" y="713"/>
      <point x="52" y="652" type="curve" smooth="yes"/>
      <point x="71" y="317" type="line"/>
      <point x="50" y="15" type="line" smooth="yes"/>
      <point x="45" y="-72"/>
      <point x="113" y="-150"/>
      <point x="199" y="-156" type="curve" smooth="yes"/>
      <point x="286" y="-161"/>
      <point x="364" y="-93"/>
    </contour>
  </outline>
</glyph>
<glyph name="g" format="1">
  <advance width="1020"/>
  <unicode hex="0067"/>
  <outline>
    <contour>
      <point x="366" y="-153" type="curve" smooth="yes"/>
      <point x="707" y="-144" type="line" smooth="yes"/>
      <point x="770" y="-143"/>
      <point x="836" y="-93"/>
      <point x="856" y="-34" type="curve" smooth="yes"/>
      <point x="962" y="295" type="line" smooth="yes"/>
      <point x="985" y="364"/>
      <point x="959" y="435"/>
      <point x="903" y="474" type="curve"/>
      <point x="917" y="484"/>
      <point x="930" y="497"/>
      <point x="941" y="511" type="curve" smooth="yes"/>
      <point x="990" y="582"/>
      <point x="973" y="685"/>
      <point x="903" y="735" type="curve" smooth="yes"/>
      <point x="621" y="935" type="line" smooth="yes"/>
      <point x="579" y="964"/>
      <point x="509" y="971"/>
      <point x="463" y="950" type="curve" smooth="yes"/>
      <point x="147" y="809" type="line" smooth="yes"/>
      <point x="95" y="786"/>
      <point x="53" y="721"/>
      <point x="52" y="664" type="curve" smooth="yes"/>
      <point x="50" y="315" type="line" smooth="yes"/>
      <point x="50" y="294"/>
      <point x="57" y="262"/>
      <point x="67" y="243" type="curve" smooth="yes"/>
      <point x="218" y="-64" type="line" smooth="yes"/>
      <point x="243" y="-114"/>
      <point x="309" y="-154"/>
    </contour>
    <contour>
      <point x="435" y="280" type="curve" smooth="yes"/>
      <point x="606" y="234" type="line"/>
      <point x="586" y="173" type="line"/>
      <point x="460" y="170" type="line"/>
      <point x="397" y="298" type="line"/>
      <point x="409" y="289"/>
      <point x="422" y="283"/>
    </contour>
  </outline>
</glyph>
<glyph name="k" format="1">
  <advance width="1020"/>
  <unicode hex="006B"/>
  <outline>
    <contour>
      <point x="827" y="-155" type="curve" smooth="yes"/>
      <point x="913" y="-146"/>
      <point x="978" y="-65"/>
      <point x="969" y="21" type="curve" smooth="yes"/>
      <point x="933" y="364" type="line" smooth="yes"/>
      <point x="928" y="410"/>
      <point x="899" y="453"/>
      <point x="861" y="480" type="curve"/>
      <point x="940" y="591" type="line" smooth="yes"/>
      <point x="956" y="614"/>
      <point x="969" y="655"/>
      <point x="969" y="683" type="curve" smooth="yes"/>
      <point x="970" y="803" type="line" smooth="yes"/>
      <point x="970" y="890"/>
      <point x="897" y="964"/>
      <point x="811" y="964" type="curve" smooth="yes"/>
      <point x="724" y="964"/>
      <point x="650" y="891"/>
      <point x="650" y="805" type="curve" smooth="yes"/>
      <point x="650" y="736" type="line"/>
      <point x="519" y="552" type="line"/>
      <point x="456" y="562" type="line" smooth="yes"/>
      <point x="429" y="566"/>
      <point x="398" y="561"/>
      <point x="370" y="550" type="curve"/>
      <point x="370" y="804" type="line" smooth="yes"/>
      <point x="370" y="890"/>
      <point x="296" y="964"/>
      <point x="210" y="964" type="curve" smooth="yes"/>
      <point x="124" y="964"/>
      <point x="50" y="890"/>
      <point x="50" y="804" type="curve" smooth="yes"/>
      <point x="50" y="471" type="line"/>
      <point x="56" y="131" type="line" smooth="yes"/>
      <point x="59" y="-32"/>
      <point x="240" y="-93"/>
      <point x="341" y="35" type="curve" smooth="yes"/>
      <point x="497" y="231" type="line"/>
      <point x="627" y="209" type="line"/>
      <point x="651" y="-13" type="line" smooth="yes"/>
      <point x="660" y="-99"/>
      <point x="741" y="-164"/>
    </contour>
  </outline>
</glyph>
<glyph name="l" format="1">
  <advance width="1020"/>
  <unicode hex="006C"/>
  <outline>
    <contour>
      <point x="550" y="-160" type="curve" smooth="yes"/>
      <point x="810" y="-160" type="line" smooth="yes"/>
      <point x="896" y="-160"/>
      <point x="970" y="-86"/>
      <point x="970" y="0" type="curve" smooth="yes"/>
      <point x="970" y="86"/>
      <point x="896" y="160"/>
      <point x="810" y="160" type="curve" smooth="yes"/>
      <point x="576" y="160" type="line"/>
      <point x="378" y="226" type="line"/>
      <point x="370" y="450" type="line"/>
      <point x="370" y="800" type="line" smooth="yes"/>
      <point x="370" y="886"/>
      <point x="296" y="960"/>
      <point x="210" y="960" type="curve" smooth="yes"/>
      <point x="124" y="960"/>
      <point x="50" y="886"/>
      <point x="50" y="800" type="curve" smooth="yes"/>
      <point x="50" y="450" type="line"/>
      <point x="62" y="103" type="line" smooth="yes"/>
      <point x="64" y="42"/>
      <point x="113" y="-24"/>
      <point x="171" y="-43" type="curve" smooth="yes"/>
      <point x="500" y="-152" type="line" smooth="yes"/>
      <point x="513" y="-156"/>
      <point x="536" y="-160"/>
    </contour>
  </outline>
</glyph>
<glyph name="n" format="1">
  <advance width="1020"/>
  <unicode hex="006E"/>
  <outline>
    <contour>
      <point x="370" y="-1" type="curve" smooth="yes"/>
      <point x="370" y="109" type="line"/>
      <point x="370" y="206" type="line"/>
      <point x="384" y="179"/>
      <point x="405" y="156"/>
      <point x="428" y="142" type="curve" smooth="yes"/>
      <point x="728" y="-38" type="line" smooth="yes"/>
      <point x="843" y="-108"/>
      <point x="970" y="-36"/>
      <point x="970" y="99" type="curve" smooth="yes"/>
      <point x="970" y="799" type="line" smooth="yes"/>
      <point x="970" y="885"/>
      <point x="896" y="959"/>
      <point x="810" y="959" type="curve" smooth="yes"/>
      <point x="724" y="959"/>
      <point x="650" y="885"/>
      <point x="650" y="799" type="curve" smooth="yes"/>
      <point x="650" y="689" type="line"/>
      <point x="636" y="715"/>
      <point x="617" y="739"/>
      <point x="595" y="752" type="curve" smooth="yes"/>
      <point x="305" y="934" type="line" smooth="yes"/>
      <point x="191" y="1006"/>
      <point x="64" y="938"/>
      <point x="60" y="804" type="curve" smooth="yes"/>
      <point x="50" y="464" type="line"/>
      <point x="50" y="109" type="line"/>
      <point x="50" y="-1" type="line" smooth="yes"/>
      <point x="50" y="-87"/>
      <point x="124" y="-161"/>
      <point x="210" y="-161" type="curve" smooth="yes"/>
      <point x="296" y="-161"/>
      <point x="370" y="-87"/>
    </contour>
  </outline>
</glyph>
<glyph name="p" format="1">
  <advance width="1018"/>
  <unicode hex="0070"/>
  <outline>
    <contour>
      <point x="210" y="-157" type="curve" smooth="yes"/>
      <point x="296" y="-157"/>
      <point x="370" y="-83"/>
      <point x="370" y="3" type="curve" smooth="yes"/>
      <point x="370" y="18" type="line"/>
      <point x="571" y="168" type="line"/>
      <point x="873" y="301" type="line" smooth="yes"/>
      <point x="942" y="332"/>
      <point x="982" y="415"/>
      <point x="964" y="487" type="curve" smooth="yes"/>
      <point x="878" y="822" type="line" smooth="yes"/>
      <point x="862" y="885"/>
      <point x="797" y="939"/>
      <point x="733" y="943" type="curve" smooth="yes"/>
      <point x="400" y="962" type="line" smooth="yes"/>
      <point x="346" y="966"/>
      <point x="281" y="931"/>
      <point x="253" y="885" type="curve" smooth="yes"/>
      <point x="73" y="585" type="line" smooth="yes"/>
      <point x="60" y="564"/>
      <point x="50" y="528"/>
      <point x="50" y="503" type="curve" smooth="yes"/>
      <point x="50" y="3" type="line" smooth="yes"/>
      <point x="50" y="-83"/>
      <point x="124" y="-157"/>
    </contour>
    <contour>
      <point x="426" y="453" type="line" smooth="yes"/>
      <point x="417" y="449"/>
      <point x="403" y="441"/>
      <point x="395" y="436" type="curve" smooth="yes"/>
      <point x="370" y="417" type="line"/>
      <point x="370" y="459" type="line"/>
      <point x="477" y="637" type="line"/>
      <point x="597" y="630" type="line"/>
      <point x="620" y="539" type="line"/>
    </contour>
  </outline>
</glyph>
<glyph name="q" format="1">
  <advance width="1021"/>
  <unicode hex="0071"/>
  <outline>
    <contour>
      <point x="410" y="-161" type="curve" smooth="yes"/>
      <point x="601" y="-161" type="line" smooth="yes"/>
      <point x="608" y="-161"/>
      <point x="614" y="-161"/>
      <point x="621" y="-160" type="curve"/>
      <point x="667" y="-157"/>
      <point x="713" y="-134"/>
      <point x="741" y="-94" type="curve" smooth="yes"/>
      <point x="941" y="186" type="line" smooth="yes"/>
      <point x="958" y="209"/>
      <point x="971" y="251"/>
      <point x="971" y="279" type="curve" smooth="yes"/>
      <point x="971" y="627" type="line" smooth="yes"/>
      <point x="971" y="679"/>
      <point x="934" y="741"/>
      <point x="890" y="766" type="curve" smooth="yes"/>
      <point x="588" y="938" type="line" smooth="yes"/>
      <point x="543" y="964"/>
      <point x="470" y="963"/>
      <point x="426" y="936" type="curve" smooth="yes"/>
      <point x="128" y="757" type="line" smooth="yes"/>
      <point x="85" y="731"/>
      <point x="50" y="669"/>
      <point x="50" y="619" type="curve" smooth="yes"/>
      <point x="50" y="279" type="line" smooth="yes"/>
      <point x="50" y="251"/>
      <point x="63" y="209"/>
      <point x="80" y="186" type="curve" smooth="yes"/>
      <point x="280" y="-94" type="line" smooth="yes"/>
      <point x="306" y="-131"/>
      <point x="365" y="-161"/>
    </contour>
    <contour>
      <point x="529" y="159" type="line"/>
      <point x="492" y="159" type="line"/>
      <point x="370" y="330" type="line"/>
      <point x="370" y="529" type="line"/>
      <point x="511" y="614" type="line"/>
      <point x="651" y="534" type="line"/>
      <point x="651" y="330" type="line"/>
    </contour>
  </outline>
</glyph>
<glyph name="r" format="1">
  <advance width="1020"/>
  <unicode hex="0072"/>
  <outline>
    <contour>
      <point x="410" y="456" type="line" smooth="yes"/>
      <point x="373" y="456" type="line"/>
      <point x="375" y="570" type="line"/>
      <point x="514" y="616" type="line"/>
      <point x="595" y="549" type="line"/>
      <point x="529" y="456" type="line"/>
      <point x="411" y="456" type="line"/>
    </contour>
    <contour>
      <point x="370" y="-4" type="curve" smooth="yes"/>
      <point x="370" y="136" type="line"/>
      <point x="541" y="136" type="line"/>
      <point x="674" y="-86" type="line" smooth="yes"/>
      <point x="718" y="-160"/>
      <point x="819" y="-186"/>
      <point x="893" y="-141" type="curve" smooth="yes"/>
      <point x="967" y="-97"/>
      <point x="993" y="4"/>
      <point x="948" y="78" type="curve" smooth="yes"/>
      <point x="813" y="304" type="line"/>
      <point x="941" y="483" type="line" smooth="yes"/>
      <point x="989" y="550"/>
      <point x="976" y="646"/>
      <point x="914" y="699" type="curve" smooth="yes"/>
      <point x="652" y="919" type="line" smooth="yes"/>
      <point x="614" y="950"/>
      <point x="545" y="963"/>
      <point x="499" y="948" type="curve" smooth="yes"/>
      <point x="168" y="839" type="line" smooth="yes"/>
      <point x="109" y="819"/>
      <point x="60" y="753"/>
      <point x="58" y="691" type="curve" smooth="yes"/>
      <point x="50" y="350" type="line"/>
      <point x="50" y="-4" type="line" smooth="yes"/>
      <point x="50" y="-90"/>
      <point x="124" y="-164"/>
      <point x="210" y="-164" type="curve" smooth="yes"/>
      <point x="296" y="-164"/>
      <point x="370" y="-90"/>
    </contour>
  </outline>
</glyph>
<glyph name="s" format="1">
  <advance width="1022"/>
  <unicode hex="0073"/>
  <outline>
    <contour>
      <point x="642" y="529" type="line"/>
      <point x="526" y="551" type="line"/>
      <point x="478" y="605" type="line"/>
      <point x="513" y="621" type="line"/>
    </contour>
    <contour>
      <point x="677" y="-151" type="line" smooth="yes"/>
      <point x="742" y="-151"/>
      <point x="811" y="-101"/>
      <point x="831" y="-39" type="curve" smooth="yes"/>
      <point x="935" y="291" type="line" smooth="yes"/>
      <point x="956" y="357"/>
      <point x="935" y="423"/>
      <point x="886" y="463" type="curve"/>
      <point x="909" y="474"/>
      <point x="929" y="490"/>
      <point x="944" y="512" type="curve" smooth="yes"/>
      <point x="994" y="582"/>
      <point x="976" y="685"/>
      <point x="905" y="735" type="curve" smooth="yes"/>
      <point x="623" y="935" type="line" smooth="yes"/>
      <point x="582" y="964"/>
      <point x="511" y="971"/>
      <point x="465" y="950" type="curve" smooth="yes"/>
      <point x="149" y="809" type="line" smooth="yes"/>
      <point x="44" y="762"/>
      <point x="18" y="643"/>
      <point x="94" y="557" type="curve" smooth="yes"/>
      <point x="277" y="349" type="line"/>
      <point x="231" y="370"/>
      <point x="175" y="368"/>
      <point x="129" y="341" type="curve" smooth="yes"/>
      <point x="55" y="296"/>
      <point x="30" y="195"/>
      <point x="75" y="121" type="curve" smooth="yes"/>
      <point x="192" y="-72" type="line" smooth="yes"/>
      <point x="217" y="-114"/>
      <point x="278" y="-149"/>
      <point x="328" y="-149" type="curve" smooth="yes"/>
    </contour>
    <contour>
      <point x="412" y="247" type="curve" smooth="yes"/>
      <point x="576" y="216" type="line"/>
      <point x="561" y="170" type="line"/>
      <point x="419" y="171" type="line"/>
      <point x="360" y="268" type="line"/>
      <point x="377" y="258"/>
      <point x="396" y="250"/>
    </contour>
  </outline>
</glyph>
<glyph name="x" format="1">
  <advance width="1020"/>
  <unicode hex="0078"/>
  <outline>
    <contour>
      <point x="370" y="0" type="curve" smooth="yes"/>
      <point x="370" y="80" type="line"/>
      <point x="499" y="227" type="line"/>
      <point x="626" y="206" type="line"/>
      <point x="651" y="-18" type="line" smooth="yes"/>
      <point x="661" y="-104"/>
      <point x="742" y="-169"/>
      <point x="828" y="-159" type="curve" smooth="yes"/>
      <point x="914" y="-149"/>
      <point x="979" y="-68"/>
      <point x="969" y="18" type="curve" smooth="yes"/>
      <point x="930" y="362" type="line" smooth="yes"/>
      <point x="929" y="374"/>
      <point x="926" y="385"/>
      <point x="922" y="397" type="curve"/>
      <point x="928" y="410"/>
      <point x="932" y="424"/>
      <point x="933" y="439" type="curve" smooth="yes"/>
      <point x="969" y="784" type="line" smooth="yes"/>
      <point x="978" y="869"/>
      <point x="912" y="950"/>
      <point x="826" y="959" type="curve" smooth="yes"/>
      <point x="741" y="968"/>
      <point x="660" y="902"/>
      <point x="651" y="816" type="curve" smooth="yes"/>
      <point x="628" y="593" type="line"/>
      <point x="498" y="572" type="line"/>
      <point x="370" y="727" type="line"/>
      <point x="370" y="800" type="line" smooth="yes"/>
      <point x="370" y="886"/>
      <point x="296" y="960"/>
      <point x="210" y="960" type="curve" smooth="yes"/>
      <point x="124" y="960"/>
      <point x="50" y="886"/>
      <point x="50" y="800" type="curve" smooth="yes"/>
      <point x="50" y="670" type="line" smooth="yes"/>
      <point x="50" y="638"/>
      <point x="66" y="593"/>
      <point x="86" y="568" type="curve" smooth="yes"/>
      <point x="225" y="399" type="line"/>
      <point x="90" y="246" type="line" smooth="yes"/>
      <point x="68" y="221"/>
      <point x="50" y="173"/>
      <point x="50" y="140" type="curve" smooth="yes"/>
      <point x="50" y="0" type="line" smooth="yes"/>
      <point x="50" y="-86"/>
      <point x="124" y="-160"/>
      <point x="210" y="-160" type="curve" smooth="yes"/>
      <point x="296" y="-160"/>
      <point x="370" y="-86"/>
    </contour>
  </outline>
</glyph>
<glyph name="y" format="1">
  <advance width="1019"/>
  <unicode hex="0079"/>
  <outline>
    <contour>
      <point x="509" y="-160" type="line" smooth="yes"/>
      <point x="532" y="-160"/>
      <point x="567" y="-151"/>
      <point x="587" y="-140" type="curve" smooth="yes"/>
      <point x="886" y="27" type="line" smooth="yes"/>
      <point x="933" y="53"/>
      <point x="970" y="117"/>
      <point x="969" y="171" type="curve" smooth="yes"/>
      <point x="959" y="512" type="line" smooth="yes"/>
      <point x="955" y="654"/>
      <point x="816" y="721"/>
      <point x="703" y="635" type="curve" smooth="yes"/>
      <point x="505" y="486" type="line"/>
      <point x="371" y="553" type="line"/>
      <point x="370" y="799" type="line" smooth="yes"/>
      <point x="370" y="885"/>
      <point x="296" y="958"/>
      <point x="209" y="958" type="curve" smooth="yes"/>
      <point x="123" y="958"/>
      <point x="50" y="884"/>
      <point x="50" y="797" type="curve" smooth="yes"/>
      <point x="51" y="454" type="line" smooth="yes"/>
      <point x="51" y="400"/>
      <point x="91" y="336"/>
      <point x="139" y="312" type="curve" smooth="yes"/>
      <point x="440" y="160" type="line"/>
      <point x="211" y="161" type="line" smooth="yes"/>
      <point x="124" y="161"/>
      <point x="50" y="88"/>
      <point x="50" y="2" type="curve" smooth="yes"/>
      <point x="50" y="-85"/>
      <point x="123" y="-159"/>
      <point x="209" y="-159" type="curve" smooth="yes"/>
    </contour>
  </outline>
</glyph>
<glyph name="z" format="1">
  <advance width="1020"/>
  <unicode hex="007A"/>
  <outline>
    <contour>
      <point x="530" y="-160" type="curve" smooth="yes"/>
      <point x="810" y="-160" type="line" smooth="yes"/>
      <point x="896" y="-160"/>
      <point x="970" y="-86"/>
      <point x="970" y="0" type="curve" smooth="yes"/>
      <point x="970" y="86"/>
      <point x="896" y="160"/>
      <point x="810" y="160" type="curve" smooth="yes"/>
      <point x="605" y="160" type="line"/>
      <point x="546" y="232" type="line"/>
      <point x="682" y="322" type="line" smooth="yes"/>
      <point x="726" y="352"/>
      <point x="758" y="418"/>
      <point x="753" y="471" type="curve" smooth="yes"/>
      <point x="719" y="815" type="line" smooth="yes"/>
      <point x="712" y="895"/>
      <point x="640" y="960"/>
      <point x="560" y="960" type="curve" smooth="yes"/>
      <point x="210" y="960" type="line" smooth="yes"/>
      <point x="124" y="960"/>
      <point x="50" y="886"/>
      <point x="50" y="800" type="curve" smooth="yes"/>
      <point x="50" y="714"/>
      <point x="124" y="640"/>
      <point x="210" y="640" type="curve" smooth="yes"/>
      <point x="415" y="640" type="line"/>
      <point x="425" y="536" type="line"/>
      <point x="221" y="400" type="line" smooth="yes"/>
      <point x="140" y="346"/>
      <point x="125" y="240"/>
      <point x="187" y="165" type="curve" smooth="yes"/>
      <point x="407" y="-102" type="line" smooth="yes"/>
      <point x="433" y="-134"/>
      <point x="488" y="-160"/>
    </contour>
  </outline>
</glyph>
<glyph name="braceleft" format="1">
  <advance width="725"/>
  <unicode hex="007B"/>
  <outline>
    <contour>
      <point x="425" y="-162" type="curve" smooth="yes"/>
      <point x="515" y="-162" type="line" smooth="yes"/>
      <point x="601" y="-162"/>
      <point x="675" y="-88"/>
      <point x="675" y="-2" type="curve" smooth="yes"/>
      <point x="675" y="84"/>
      <point x="601" y="158"/>
      <point x="515" y="158" type="curve" smooth="yes"/>
      <point x="503" y="158" type="line"/>
      <point x="371" y="327" type="line"/>
      <point x="374" y="527" type="line"/>
      <point x="597" y="661" type="line" smooth="yes"/>
      <point x="671" y="705"/>
      <point x="697" y="806"/>
      <point x="652" y="880" type="curve" smooth="yes"/>
      <point x="608" y="954"/>
      <point x="507" y="980"/>
      <point x="433" y="935" type="curve" smooth="yes"/>
      <point x="133" y="756" type="line" smooth="yes"/>
      <point x="91" y="731"/>
      <point x="56" y="670"/>
      <point x="55" y="621" type="curve" smooth="yes"/>
      <point x="50" y="276" type="line" smooth="yes"/>
      <point x="49" y="245"/>
      <point x="65" y="199"/>
      <point x="84" y="175" type="curve" smooth="yes"/>
      <point x="299" y="-101" type="line" smooth="yes"/>
      <point x="325" y="-134"/>
      <point x="382" y="-162"/>
    </contour>
  </outline>
</glyph>
<glyph name="bar" format="1">
  <advance width="420"/>
  <unicode hex="007C"/>
  <outline>
    <contour>
      <point x="210" y="-159" type="curve" smooth="yes"/>
      <point x="296" y="-159"/>
      <point x="370" y="-85"/>
      <point x="370" y="1" type="curve" smooth="yes"/>
      <point x="370" y="801" type="line" smooth="yes"/>
      <point x="370" y="887"/>
      <point x="296" y="961"/>
      <point x="210" y="961" type="curve" smooth="yes"/>
      <point x="124" y="961"/>
      <point x="50" y="887"/>
      <point x="50" y="801" type="curve" smooth="yes"/>
      <point x="50" y="1" type="line" smooth="yes"/>
      <point x="50" y="-85"/>
      <point x="124" y="-159"/>
    </contour>
  </outline>
</glyph>
<glyph name="braceright" format="1">
  <advance width="725"/>
  <unicode hex="007D"/>
  <outline>
    <contour>
      <point x="210" y="-161" type="curve" smooth="yes"/>
      <point x="300" y="-161" type="line" smooth="yes"/>
      <point x="343" y="-161"/>
      <point x="400" y="-133"/>
      <point x="426" y="-100" type="curve" smooth="yes"/>
      <point x="641" y="176" type="line" smooth="yes"/>
      <point x="660" y="200"/>
      <point x="676" y="246"/>
      <point x="675" y="277" type="curve" smooth="yes"/>
      <point x="670" y="622" type="line" smooth="yes"/>
      <point x="669" y="671"/>
      <point x="634" y="732"/>
      <point x="592" y="757" type="curve" smooth="yes"/>
      <point x="292" y="936" type="line" smooth="yes"/>
      <point x="218" y="981"/>
      <point x="117" y="955"/>
      <point x="73" y="881" type="curve" smooth="yes"/>
      <point x="28" y="807"/>
      <point x="54" y="706"/>
      <point x="128" y="662" type="curve" smooth="yes"/>
      <point x="351" y="528" type="line"/>
      <point x="354" y="328" type="line"/>
      <point x="222" y="159" type="line"/>
      <point x="210" y="159" type="line" smooth="yes"/>
      <point x="124" y="159"/>
      <point x="50" y="85"/>
      <point x="50" y="-1" type="curve" smooth="yes"/>
      <point x="50" y="-87"/>
      <point x="124" y="-161"/>
    </contour>
  </outline>
</glyph>
<glyph name="asciitilde" format="1">
  <advance width="1019"/>
  <unicode hex="007E"/>
  <outline>
    <contour>
      <point x="302" y="-27" type="curve" smooth="yes"/>
      <point x="540" y="143" type="line"/>
      <point x="809" y="143" type="line" smooth="yes"/>
      <point x="895" y="143"/>
      <point x="969" y="217"/>
      <point x="969" y="303" type="curve" smooth="yes"/>
      <point x="969" y="389"/>
      <point x="895" y="463"/>
      <point x="809" y="463" type="curve" smooth="yes"/>
      <point x="489" y="463" type="line" smooth="yes"/>
      <point x="461" y="463"/>
      <point x="419" y="450"/>
      <point x="396" y="433" type="curve" smooth="yes"/>
      <point x="116" y="233" type="line" smooth="yes"/>
      <point x="46" y="183"/>
      <point x="29" y="80"/>
      <point x="79" y="10" type="curve" smooth="yes"/>
      <point x="129" y="-60"/>
      <point x="232" y="-77"/>
    </contour>
  </outline>
</glyph>
<glyph name="cent" format="1">
  <advance width="764"/>
  <unicode hex="00A2"/>
  <outline>
    <contour>
      <point x="454" y="-260" type="curve" smooth="yes"/>
      <point x="523" y="-260"/>
      <point x="583" y="-214"/>
      <point x="605" y="-151" type="curve"/>
      <point x="665" y="-130"/>
      <point x="710" y="-74"/>
      <point x="714" y="-8" type="curve" smooth="yes"/>
      <point x="718" y="78"/>
      <point x="649" y="155"/>
      <point x="562" y="160" type="curve" smooth="yes"/>
      <point x="394" y="168" type="line"/>
      <point x="388" y="221" type="line"/>
      <point x="571" y="241" type="line" smooth="yes"/>
      <point x="657" y="250"/>
      <point x="722" y="331"/>
      <point x="713" y="417" type="curve" smooth="yes"/>
      <point x="706" y="479"/>
      <point x="662" y="531"/>
      <point x="605" y="551" type="curve"/>
      <point x="583" y="613"/>
      <point x="523" y="660"/>
      <point x="454" y="660" type="curve" smooth="yes"/>
      <point x="379" y="660"/>
      <point x="314" y="604"/>
      <point x="298" y="533" type="curve"/>
      <point x="192" y="522" type="line" smooth="yes"/>
      <point x="103" y="512"/>
      <point x="40" y="432"/>
      <point x="51" y="344" type="curve" smooth="yes"/>
      <point x="92" y="-3" type="line" smooth="yes"/>
      <point x="101" y="-77"/>
      <point x="168" y="-140"/>
      <point x="243" y="-144" type="curve" smooth="yes"/>
      <point x="301" y="-147" type="line"/>
      <point x="322" y="-212"/>
      <point x="384" y="-260"/>
    </contour>
  </outline>
</glyph>
<glyph name="sterling" format="1">
  <advance width="773"/>
  <unicode hex="00A3"/>
  <outline>
    <contour>
      <point x="214" y="-159" type="curve" smooth="yes"/>
      <point x="563" y="-159" type="line" smooth="yes"/>
      <point x="649" y="-159"/>
      <point x="723" y="-85"/>
      <point x="723" y="1" type="curve" smooth="yes"/>
      <point x="723" y="87"/>
      <point x="649" y="161"/>
      <point x="563" y="161" type="curve" smooth="yes"/>
      <point x="467" y="161" type="line"/>
      <point x="505" y="241" type="line"/>
      <point x="513" y="241" type="line" smooth="yes"/>
      <point x="599" y="241"/>
      <point x="673" y="315"/>
      <point x="673" y="401" type="curve" smooth="yes"/>
      <point x="673" y="483"/>
      <point x="606" y="554"/>
      <point x="525" y="560" type="curve"/>
      <point x="525" y="571" type="line"/>
      <point x="660" y="674" type="line" smooth="yes"/>
      <point x="729" y="726"/>
      <point x="743" y="829"/>
      <point x="690" y="898" type="curve" smooth="yes"/>
      <point x="638" y="967"/>
      <point x="535" y="981"/>
      <point x="466" y="928" type="curve" smooth="yes"/>
      <point x="269" y="779" type="line" smooth="yes"/>
      <point x="235" y="752"/>
      <point x="206" y="696"/>
      <point x="206" y="653" type="curve" smooth="yes"/>
      <point x="205" y="561" type="line"/>
      <point x="122" y="557"/>
      <point x="53" y="485"/>
      <point x="53" y="401" type="curve" smooth="yes"/>
      <point x="53" y="335"/>
      <point x="97" y="276"/>
      <point x="156" y="252" type="curve"/>
      <point x="69" y="70" type="line" smooth="yes"/>
      <point x="14" y="-45"/>
      <point x="87" y="-159"/>
    </contour>
  </outline>
</glyph>
<glyph name="section" format="1">
  <advance width="1030"/>
  <unicode hex="00A7"/>
  <outline>
    <contour>
      <point x="575" y="-141" type="curve" smooth="yes"/>
      <point x="882" y="9" type="line" smooth="yes"/>
      <point x="1011" y="72"/>
      <point x="1013" y="228"/>
      <point x="887" y="294" type="curve"/>
      <point x="882" y="305"/>
      <point x="876" y="316"/>
      <point x="868" y="326" type="curve" smooth="yes"/>
      <point x="771" y="450" type="line"/>
      <point x="785" y="445"/>
      <point x="800" y="443"/>
      <point x="815" y="443" type="curve" smooth="yes"/>
      <point x="901" y="443"/>
      <point x="975" y="517"/>
      <point x="975" y="603" type="curve" smooth="yes"/>
      <point x="975" y="610" type="line" smooth="yes"/>
      <point x="975" y="657"/>
      <point x="943" y="716"/>
      <point x="904" y="743" type="curve" smooth="yes"/>
      <point x="614" y="936" type="line" smooth="yes"/>
      <point x="572" y="964"/>
      <point x="500" y="969"/>
      <point x="455" y="947" type="curve" smooth="yes"/>
      <point x="148" y="797" type="line" smooth="yes"/>
      <point x="19" y="734"/>
      <point x="17" y="578"/>
      <point x="143" y="512" type="curve"/>
      <point x="148" y="501"/>
      <point x="154" y="490"/>
      <point x="162" y="480" type="curve" smooth="yes"/>
      <point x="259" y="356" type="line"/>
      <point x="245" y="361"/>
      <point x="230" y="363"/>
      <point x="215" y="363" type="curve" smooth="yes"/>
      <point x="129" y="363"/>
      <point x="55" y="289"/>
      <point x="55" y="203" type="curve" smooth="yes"/>
      <point x="55" y="196" type="line" smooth="yes"/>
      <point x="55" y="149"/>
      <point x="87" y="90"/>
      <point x="126" y="63" type="curve" smooth="yes"/>
      <point x="416" y="-130" type="line" smooth="yes"/>
      <point x="458" y="-158"/>
      <point x="530" y="-163"/>
    </contour>
  </outline>
</glyph>
<glyph name="guillemotleft" format="1">
  <advance width="676"/>
  <unicode hex="00AB"/>
  <outline>
    <contour>
      <point x="579" y="-116" type="curve" smooth="yes"/>
      <point x="640" y="-55"/>
      <point x="640" y="48"/>
      <point x="580" y="109" type="curve"/>
      <point x="624" y="371" type="line" smooth="yes"/>
      <point x="638" y="456"/>
      <point x="578" y="541"/>
      <point x="492" y="555" type="curve" smooth="yes"/>
      <point x="446" y="562"/>
      <point x="401" y="549"/>
      <point x="366" y="521" type="curve"/>
      <point x="345" y="538"/>
      <point x="320" y="550"/>
      <point x="292" y="555" type="curve" smooth="yes"/>
      <point x="207" y="569"/>
      <point x="122" y="509"/>
      <point x="108" y="423" type="curve" smooth="yes"/>
      <point x="51" y="80" type="line" smooth="yes"/>
      <point x="44" y="36"/>
      <point x="64" y="-27"/>
      <point x="96" y="-59" type="curve" smooth="yes"/>
      <point x="153" y="-116" type="line" smooth="yes"/>
      <point x="210" y="-173"/>
      <point x="304" y="-177"/>
      <point x="366" y="-128" type="curve"/>
      <point x="428" y="-177"/>
      <point x="522" y="-173"/>
    </contour>
  </outline>
</glyph>
<glyph name="paragraph" format="1">
  <advance width="878"/>
  <unicode hex="00B6"/>
  <outline>
    <contour>
      <point x="668" y="-160" type="curve" smooth="yes"/>
      <point x="754" y="-160"/>
      <point x="828" y="-86"/>
      <point x="828" y="0" type="curve" smooth="yes"/>
      <point x="828" y="480" type="line" smooth="yes"/>
      <point x="828" y="496"/>
      <point x="823" y="521"/>
      <point x="818" y="536" type="curve" smooth="yes"/>
      <point x="698" y="856" type="line" smooth="yes"/>
      <point x="673" y="923"/>
      <point x="595" y="969"/>
      <point x="524" y="958" type="curve" smooth="yes"/>
      <point x="186" y="908" type="line" smooth="yes"/>
      <point x="95" y="894"/>
      <point x="35" y="809"/>
      <point x="53" y="719" type="curve" smooth="yes"/>
      <point x="119" y="378" type="line" smooth="yes"/>
      <point x="140" y="274"/>
      <point x="227" y="225"/>
      <point x="308" y="245" type="curve"/>
      <point x="308" y="0" type="line" smooth="yes"/>
      <point x="308" y="-86"/>
      <point x="382" y="-160"/>
      <point x="468" y="-160" type="curve" smooth="yes"/>
      <point x="505" y="-160"/>
      <point x="540" y="-146"/>
      <point x="568" y="-124" type="curve"/>
      <point x="596" y="-146"/>
      <point x="631" y="-160"/>
    </contour>
  </outline>
</glyph>
<glyph name="guillemotright" format="1">
  <advance width="676"/>
  <unicode hex="00BB"/>
  <outline>
    <contour>
      <point x="523" y="-112" type="curve" smooth="yes"/>
      <point x="580" y="-55" type="line" smooth="yes"/>
      <point x="612" y="-23"/>
      <point x="632" y="40"/>
      <point x="625" y="84" type="curve" smooth="yes"/>
      <point x="568" y="427" type="line" smooth="yes"/>
      <point x="554" y="513"/>
      <point x="469" y="573"/>
      <point x="384" y="559" type="curve" smooth="yes"/>
      <point x="356" y="554"/>
      <point x="331" y="542"/>
      <point x="310" y="525" type="curve"/>
      <point x="275" y="553"/>
      <point x="230" y="566"/>
      <point x="184" y="559" type="curve" smooth="yes"/>
      <point x="98" y="545"/>
      <point x="38" y="460"/>
      <point x="52" y="375" type="curve" smooth="yes"/>
      <point x="96" y="113" type="line"/>
      <point x="36" y="52"/>
      <point x="36" y="-51"/>
      <point x="97" y="-112" type="curve" smooth="yes"/>
      <point x="154" y="-169"/>
      <point x="248" y="-173"/>
      <point x="310" y="-124" type="curve"/>
      <point x="372" y="-173"/>
      <point x="466" y="-169"/>
    </contour>
  </outline>
</glyph>
<glyph name="Acircumflex" format="1">
  <advance width="1020"/>
  <unicode hex="00C2"/>
  <outline>
    <contour>
      <point x="810" y="-164" type="curve" smooth="yes"/>
      <point x="896" y="-164"/>
      <point x="970" y="-90"/>
      <point x="970" y="-4" type="curve" smooth="yes"/>
      <point x="970" y="499" type="line" smooth="yes"/>
      <point x="970" y="524"/>
      <point x="959" y="562"/>
      <point x="946" y="583" type="curve" smooth="yes"/>
      <point x="832" y="771" type="line"/>
      <point x="876" y="777"/>
      <point x="917" y="801"/>
      <point x="943" y="839" type="curve" smooth="yes"/>
      <point x="991" y="911"/>
      <point x="971" y="1013"/>
      <point x="899" y="1061" type="curve" smooth="yes"/>
      <point x="875" y="1077" type="line"/>
      <point x="575" y="1255" type="line" smooth="yes"/>
      <point x="527" y="1283"/>
      <point x="451" y="1281"/>
      <point x="405" y="1250" type="curve" smooth="yes"/>
      <point x="121" y="1061" type="line" smooth="yes"/>
      <point x="49" y="1013"/>
      <point x="29" y="911"/>
      <point x="77" y="839" type="curve" smooth="yes"/>
      <point x="91" y="818"/>
      <point x="110" y="801"/>
      <point x="132" y="789" type="curve"/>
      <point x="55" y="478" type="line" smooth="yes"/>
      <point x="52" y="466"/>
      <point x="50" y="448"/>
      <point x="50" y="437" type="curve" smooth="yes"/>
      <point x="55" y="96" type="line" smooth="yes"/>
      <point x="57" y="-58"/>
      <point x="219" y="-124"/>
      <point x="328" y="-14" type="curve" smooth="yes"/>
      <point x="527" y="186" type="line"/>
      <point x="650" y="186" type="line"/>
      <point x="650" y="-4" type="line" smooth="yes"/>
      <point x="650" y="-90"/>
      <point x="724" y="-164"/>
    </contour>
    <contour>
      <point x="460" y="506" type="line" smooth="yes"/>
      <point x="438" y="506"/>
      <point x="411" y="498"/>
      <point x="387" y="486" type="curve"/>
      <point x="421" y="623" type="line"/>
      <point x="542" y="630" type="line"/>
      <point x="618" y="506" type="line"/>
    </contour>
  </outline>
</glyph>
<glyph name="Atilde" format="1">
  <advance width="1020"/>
  <unicode hex="00C3"/>
  <outline>
    <contour>
      <point x="810" y="-164" type="curve" smooth="yes"/>
      <point x="896" y="-164"/>
      <point x="970" y="-90"/>
      <point x="970" y="-4" type="curve" smooth="yes"/>
      <point x="970" y="499" type="line" smooth="yes"/>
      <point x="970" y="524"/>
      <point x="959" y="562"/>
      <point x="946" y="583" type="curve" smooth="yes"/>
      <point x="765" y="879" type="line" smooth="yes"/>
      <point x="738" y="924"/>
      <point x="672" y="958"/>
      <point x="620" y="955" type="curve" smooth="yes"/>
      <point x="515" y="949" type="line"/>
      <point x="541" y="968" type="line"/>
      <point x="810" y="968" type="line" smooth="yes"/>
      <point x="896" y="968"/>
      <point x="970" y="1042"/>
      <point x="970" y="1128" type="curve" smooth="yes"/>
      <point x="970" y="1214"/>
      <point x="896" y="1288"/>
      <point x="810" y="1288" type="curve" smooth="yes"/>
      <point x="490" y="1288" type="line" smooth="yes"/>
      <point x="462" y="1288"/>
      <point x="420" y="1275"/>
      <point x="397" y="1258" type="curve" smooth="yes"/>
      <point x="117" y="1058" type="line" smooth="yes"/>
      <point x="47" y="1008"/>
      <point x="30" y="905"/>
      <point x="80" y="835" type="curve" smooth="yes"/>
      <point x="94" y="815"/>
      <point x="112" y="800"/>
      <point x="132" y="789" type="curve"/>
      <point x="55" y="478" type="line" smooth="yes"/>
      <point x="52" y="466"/>
      <point x="50" y="448"/>
      <point x="50" y="437" type="curve" smooth="yes"/>
      <point x="55" y="96" type="line" smooth="yes"/>
      <point x="57" y="-58"/>
      <point x="219" y="-124"/>
      <point x="328" y="-14" type="curve" smooth="yes"/>
      <point x="527" y="186" type="line"/>
      <point x="650" y="186" type="line"/>
      <point x="650" y="-4" type="line" smooth="yes"/>
      <point x="650" y="-90"/>
      <point x="724" y="-164"/>
    </contour>
    <contour>
      <point x="460" y="506" type="line" smooth="yes"/>
      <point x="438" y="506"/>
      <point x="411" y="498"/>
      <point x="387" y="486" type="curve"/>
      <point x="421" y="623" type="line"/>
      <point x="542" y="630" type="line"/>
      <point x="618" y="506" type="line"/>
    </contour>
  </outline>
</glyph>
<glyph name="Ccedilla" format="1">
  <advance width="1019"/>
  <unicode hex="00C7"/>
  <outline>
    <contour>
      <point x="414" y="-131" type="curve" smooth="yes"/>
      <point x="759" y="-122" type="line" smooth="yes"/>
      <point x="820" y="-120"/>
      <point x="886" y="-71"/>
      <point x="906" y="-13" type="curve" smooth="yes"/>
      <point x="961" y="149" type="line" smooth="yes"/>
      <point x="989" y="231"/>
      <point x="943" y="325"/>
      <point x="862" y="352" type="curve" smooth="yes"/>
      <point x="780" y="380"/>
      <point x="686" y="334"/>
      <point x="659" y="253" type="curve" smooth="yes"/>
      <point x="639" y="195" type="line"/>
      <point x="491" y="191" type="line"/>
      <point x="370" y="363" type="line"/>
      <point x="371" y="553" type="line"/>
      <point x="511" y="617" type="line"/>
      <point x="717" y="470" type="line" smooth="yes"/>
      <point x="788" y="421"/>
      <point x="891" y="438"/>
      <point x="941" y="508" type="curve" smooth="yes"/>
      <point x="990" y="579"/>
      <point x="973" y="682"/>
      <point x="903" y="732" type="curve" smooth="yes"/>
      <point x="621" y="932" type="line" smooth="yes"/>
      <point x="579" y="961"/>
      <point x="508" y="968"/>
      <point x="461" y="946" type="curve" smooth="yes"/>
      <point x="145" y="801" type="line" smooth="yes"/>
      <point x="93" y="777"/>
      <point x="52" y="712"/>
      <point x="51" y="656" type="curve" smooth="yes"/>
      <point x="50" y="313" type="line" smooth="yes"/>
      <point x="50" y="285"/>
      <point x="63" y="243"/>
      <point x="79" y="220" type="curve" smooth="yes"/>
      <point x="279" y="-63" type="line" smooth="yes"/>
      <point x="306" y="-102"/>
      <point x="367" y="-132"/>
    </contour>
  </outline>
</glyph>
<glyph name="Eacute" format="1">
  <advance width="1020"/>
  <unicode hex="00C9"/>
  <outline>
    <contour>
      <point x="611" y="-160" type="line" smooth="yes"/>
      <point x="625" y="-160"/>
      <point x="640" y="-158"/>
      <point x="653" y="-154" type="curve"/>
      <point x="680" y="-147"/>
      <point x="705" y="-134"/>
      <point x="726" y="-114" type="curve" smooth="yes"/>
      <point x="924" y="82" type="line" smooth="yes"/>
      <point x="985" y="143"/>
      <point x="985" y="247"/>
      <point x="925" y="309" type="curve" smooth="yes"/>
      <point x="864" y="370"/>
      <point x="760" y="370"/>
      <point x="698" y="310" type="curve" smooth="yes"/>
      <point x="552" y="165" type="line"/>
      <point x="478" y="197" type="line"/>
      <point x="563" y="300" type="line" smooth="yes"/>
      <point x="611" y="358"/>
      <point x="609" y="451"/>
      <point x="559" y="508" type="curve" smooth="yes"/>
      <point x="477" y="601" type="line"/>
      <point x="511" y="617" type="line"/>
      <point x="718" y="471" type="line" smooth="yes"/>
      <point x="789" y="421"/>
      <point x="891" y="439"/>
      <point x="941" y="510" type="curve" smooth="yes"/>
      <point x="991" y="581"/>
      <point x="973" y="683"/>
      <point x="902" y="733" type="curve" smooth="yes"/>
      <point x="707" y="870" type="line"/>
      <point x="878" y="984" type="line"/>
      <point x="895" y="995" type="line" smooth="yes"/>
      <point x="967" y="1043"/>
      <point x="987" y="1145"/>
      <point x="939" y="1217" type="curve" smooth="yes"/>
      <point x="891" y="1289"/>
      <point x="789" y="1309"/>
      <point x="717" y="1261" type="curve" smooth="yes"/>
      <point x="701" y="1250" type="line"/>
      <point x="417" y="1061" type="line" smooth="yes"/>
      <point x="363" y="1025"/>
      <point x="338" y="957"/>
      <point x="350" y="895" type="curve"/>
      <point x="147" y="803" type="line" smooth="yes"/>
      <point x="43" y="756"/>
      <point x="18" y="637"/>
      <point x="93" y="551" type="curve" smooth="yes"/>
      <point x="229" y="398" type="line"/>
      <point x="94" y="235" type="line" smooth="yes"/>
      <point x="22" y="147"/>
      <point x="50" y="30"/>
      <point x="155" y="-14" type="curve" smooth="yes"/>
      <point x="470" y="-147" type="line" smooth="yes"/>
      <point x="486" y="-154"/>
      <point x="514" y="-160"/>
      <point x="532" y="-160" type="curve" smooth="yes"/>
    </contour>
  </outline>
</glyph>
<glyph name="Icircumflex" format="1">
  <advance width="1023"/>
  <unicode hex="00CE"/>
  <outline>
    <contour>
      <point x="210" y="-161" type="curve" smooth="yes"/>
      <point x="560" y="-161" type="line" smooth="yes"/>
      <point x="661" y="-161"/>
      <point x="733" y="-78"/>
      <point x="718" y="22" type="curve" smooth="yes"/>
      <point x="670" y="352" type="line"/>
      <point x="664" y="571" type="line"/>
      <point x="868" y="650" type="line" smooth="yes"/>
      <point x="948" y="681"/>
      <point x="990" y="776"/>
      <point x="959" y="857" type="curve" smooth="yes"/>
      <point x="959" y="857"/>
      <point x="959" y="858"/>
      <point x="958" y="859" type="curve"/>
      <point x="991" y="929"/>
      <point x="968" y="1017"/>
      <point x="903" y="1061" type="curve" smooth="yes"/>
      <point x="879" y="1077" type="line"/>
      <point x="579" y="1255" type="line" smooth="yes"/>
      <point x="531" y="1283"/>
      <point x="455" y="1281"/>
      <point x="409" y="1250" type="curve" smooth="yes"/>
      <point x="125" y="1061" type="line" smooth="yes"/>
      <point x="53" y="1013"/>
      <point x="33" y="911"/>
      <point x="81" y="839" type="curve" smooth="yes"/>
      <point x="129" y="767"/>
      <point x="231" y="747"/>
      <point x="303" y="795" type="curve" smooth="yes"/>
      <point x="502" y="928" type="line"/>
      <point x="580" y="882" type="line"/>
      <point x="444" y="829" type="line" smooth="yes"/>
      <point x="386" y="807"/>
      <point x="340" y="738"/>
      <point x="341" y="676" type="curve" smooth="yes"/>
      <point x="350" y="335" type="line" smooth="yes"/>
      <point x="350" y="329"/>
      <point x="351" y="321"/>
      <point x="352" y="315" type="curve" smooth="yes"/>
      <point x="375" y="159" type="line"/>
      <point x="210" y="159" type="line" smooth="yes"/>
      <point x="124" y="159"/>
      <point x="50" y="85"/>
      <point x="50" y="-1" type="curve" smooth="yes"/>
      <point x="50" y="-87"/>
      <point x="124" y="-161"/>
    </contour>
  </outline>
</glyph>
<glyph name="Ograve" format="1">
  <advance width="1021"/>
  <unicode hex="00D2"/>
  <outline>
    <contour>
      <point x="412" y="-161" type="curve" smooth="yes"/>
      <point x="604" y="-161" type="line" smooth="yes"/>
      <point x="610" y="-161"/>
      <point x="617" y="-161"/>
      <point x="623" y="-160" type="curve"/>
      <point x="671" y="-157"/>
      <point x="716" y="-134"/>
      <point x="745" y="-93" type="curve" smooth="yes"/>
      <point x="942" y="187" type="line" smooth="yes"/>
      <point x="958" y="210"/>
      <point x="971" y="251"/>
      <point x="971" y="279" type="curve" smooth="yes"/>
      <point x="971" y="627" type="line" smooth="yes"/>
      <point x="971" y="679"/>
      <point x="934" y="741"/>
      <point x="890" y="766" type="curve" smooth="yes"/>
      <point x="666" y="894" type="line"/>
      <point x="679" y="956"/>
      <point x="654" y="1024"/>
      <point x="599" y="1061" type="curve" smooth="yes"/>
      <point x="315" y="1250" type="line"/>
      <point x="299" y="1261" type="line" smooth="yes"/>
      <point x="227" y="1309"/>
      <point x="125" y="1289"/>
      <point x="77" y="1217" type="curve" smooth="yes"/>
      <point x="29" y="1145"/>
      <point x="49" y="1043"/>
      <point x="121" y="995" type="curve" smooth="yes"/>
      <point x="138" y="984" type="line"/>
      <point x="312" y="868" type="line"/>
      <point x="128" y="757" type="line" smooth="yes"/>
      <point x="85" y="731"/>
      <point x="50" y="669"/>
      <point x="50" y="619" type="curve" smooth="yes"/>
      <point x="50" y="279" type="line" smooth="yes"/>
      <point x="50" y="250"/>
      <point x="64" y="209"/>
      <point x="80" y="185" type="curve" smooth="yes"/>
      <point x="282" y="-95" type="line" smooth="yes"/>
      <point x="309" y="-131"/>
      <point x="367" y="-161"/>
    </contour>
    <contour>
      <point x="531" y="159" type="line"/>
      <point x="494" y="159" type="line"/>
      <point x="370" y="331" type="line"/>
      <point x="370" y="529" type="line"/>
      <point x="511" y="614" type="line"/>
      <point x="651" y="534" type="line"/>
      <point x="651" y="330" type="line"/>
    </contour>
  </outline>
</glyph>
<glyph name="Ocircumflex" format="1">
  <advance width="1021"/>
  <unicode hex="00D4"/>
  <outline>
    <contour>
      <point x="412" y="-161" type="curve" smooth="yes"/>
      <point x="604" y="-161" type="line" smooth="yes"/>
      <point x="610" y="-161"/>
      <point x="617" y="-161"/>
      <point x="623" y="-160" type="curve"/>
      <point x="671" y="-157"/>
      <point x="716" y="-134"/>
      <point x="745" y="-93" type="curve" smooth="yes"/>
      <point x="942" y="187" type="line" smooth="yes"/>
      <point x="958" y="210"/>
      <point x="971" y="251"/>
      <point x="971" y="279" type="curve" smooth="yes"/>
      <point x="971" y="627" type="line" smooth="yes"/>
      <point x="971" y="679"/>
      <point x="934" y="741"/>
      <point x="890" y="766" type="curve" smooth="yes"/>
      <point x="867" y="779" type="line"/>
      <point x="897" y="791"/>
      <point x="924" y="811"/>
      <point x="943" y="839" type="curve" smooth="yes"/>
      <point x="991" y="911"/>
      <point x="971" y="1013"/>
      <point x="899" y="1061" type="curve" smooth="yes"/>
      <point x="875" y="1077" type="line"/>
      <point x="575" y="1255" type="line" smooth="yes"/>
      <point x="527" y="1283"/>
      <point x="451" y="1281"/>
      <point x="405" y="1250" type="curve" smooth="yes"/>
      <point x="121" y="1061" type="line" smooth="yes"/>
      <point x="49" y="1013"/>
      <point x="29" y="911"/>
      <point x="77" y="839" type="curve" smooth="yes"/>
      <point x="97" y="809"/>
      <point x="128" y="787"/>
      <point x="161" y="777" type="curve"/>
      <point x="128" y="757" type="line" smooth="yes"/>
      <point x="85" y="731"/>
      <point x="50" y="669"/>
      <point x="50" y="619" type="curve" smooth="yes"/>
      <point x="50" y="279" type="line" smooth="yes"/>
      <point x="50" y="250"/>
      <point x="64" y="209"/>
      <point x="80" y="185" type="curve" smooth="yes"/>
      <point x="282" y="-95" type="line" smooth="yes"/>
      <point x="309" y="-131"/>
      <point x="367" y="-161"/>
    </contour>
    <contour>
      <point x="531" y="159" type="line"/>
      <point x="494" y="159" type="line"/>
      <point x="370" y="331" type="line"/>
      <point x="370" y="529" type="line"/>
      <point x="511" y="614" type="line"/>
      <point x="651" y="534" type="line"/>
      <point x="651" y="330" type="line"/>
    </contour>
  </outline>
</glyph>
<glyph name="Otilde" format="1">
  <advance width="1021"/>
  <unicode hex="00D5"/>
  <outline>
    <contour>
      <point x="412" y="-161" type="curve" smooth="yes"/>
      <point x="604" y="-161" type="line" smooth="yes"/>
      <point x="610" y="-161"/>
      <point x="617" y="-161"/>
      <point x="623" y="-160" type="curve"/>
      <point x="671" y="-157"/>
      <point x="716" y="-134"/>
      <point x="745" y="-93" type="curve" smooth="yes"/>
      <point x="942" y="187" type="line" smooth="yes"/>
      <point x="958" y="210"/>
      <point x="971" y="251"/>
      <point x="971" y="279" type="curve" smooth="yes"/>
      <point x="971" y="627" type="line" smooth="yes"/>
      <point x="971" y="679"/>
      <point x="934" y="741"/>
      <point x="890" y="766" type="curve" smooth="yes"/>
      <point x="588" y="938" type="line" smooth="yes"/>
      <point x="570" y="948"/>
      <point x="548" y="954"/>
      <point x="525" y="956" type="curve"/>
      <point x="541" y="968" type="line"/>
      <point x="810" y="968" type="line" smooth="yes"/>
      <point x="896" y="968"/>
      <point x="970" y="1042"/>
      <point x="970" y="1128" type="curve" smooth="yes"/>
      <point x="970" y="1214"/>
      <point x="896" y="1288"/>
      <point x="810" y="1288" type="curve" smooth="yes"/>
      <point x="490" y="1288" type="line" smooth="yes"/>
      <point x="462" y="1288"/>
      <point x="420" y="1275"/>
      <point x="397" y="1258" type="curve" smooth="yes"/>
      <point x="117" y="1058" type="line" smooth="yes"/>
      <point x="47" y="1008"/>
      <point x="30" y="905"/>
      <point x="80" y="835" type="curve" smooth="yes"/>
      <point x="100" y="807"/>
      <point x="129" y="787"/>
      <point x="161" y="777" type="curve"/>
      <point x="128" y="757" type="line" smooth="yes"/>
      <point x="85" y="731"/>
      <point x="50" y="669"/>
      <point x="50" y="619" type="curve" smooth="yes"/>
      <point x="50" y="279" type="line" smooth="yes"/>
      <point x="50" y="250"/>
      <point x="64" y="209"/>
      <point x="80" y="185" type="curve" smooth="yes"/>
      <point x="282" y="-95" type="line" smooth="yes"/>
      <point x="309" y="-131"/>
      <point x="367" y="-161"/>
    </contour>
    <contour>
      <point x="531" y="159" type="line"/>
      <point x="494" y="159" type="line"/>
      <point x="370" y="331" type="line"/>
      <point x="370" y="529" type="line"/>
      <point x="511" y="614" type="line"/>
      <point x="651" y="534" type="line"/>
      <point x="651" y="330" type="line"/>
    </contour>
  </outline>
</glyph>
<glyph name="Ugrave" format="1">
  <advance width="1019"/>
  <unicode hex="00D9"/>
  <outline>
    <contour>
      <point x="519" y="-154" type="curve" smooth="yes"/>
      <point x="845" y="-53" type="line" smooth="yes"/>
      <point x="906" y="-35"/>
      <point x="956" y="31"/>
      <point x="958" y="95" type="curve" smooth="yes"/>
      <point x="969" y="449" type="line"/>
      <point x="969" y="799" type="line" smooth="yes"/>
      <point x="969" y="885"/>
      <point x="895" y="959"/>
      <point x="809" y="959" type="curve" smooth="yes"/>
      <point x="723" y="959"/>
      <point x="649" y="885"/>
      <point x="649" y="799" type="curve" smooth="yes"/>
      <point x="649" y="449" type="line"/>
      <point x="642" y="219" type="line"/>
      <point x="510" y="178" type="line"/>
      <point x="370" y="301" type="line"/>
      <point x="370" y="799" type="line" smooth="yes"/>
      <point x="370" y="810"/>
      <point x="369" y="821"/>
      <point x="366" y="832" type="curve"/>
      <point x="422" y="795" type="line" smooth="yes"/>
      <point x="494" y="747"/>
      <point x="596" y="767"/>
      <point x="644" y="839" type="curve" smooth="yes"/>
      <point x="692" y="911"/>
      <point x="672" y="1013"/>
      <point x="600" y="1061" type="curve" smooth="yes"/>
      <point x="316" y="1250" type="line"/>
      <point x="300" y="1261" type="line" smooth="yes"/>
      <point x="228" y="1309"/>
      <point x="126" y="1289"/>
      <point x="78" y="1217" type="curve" smooth="yes"/>
      <point x="30" y="1145"/>
      <point x="50" y="1043"/>
      <point x="122" y="995" type="curve" smooth="yes"/>
      <point x="139" y="984" type="line"/>
      <point x="180" y="956" type="line"/>
      <point x="107" y="942"/>
      <point x="50" y="875"/>
      <point x="50" y="799" type="curve" smooth="yes"/>
      <point x="50" y="229" type="line" smooth="yes"/>
      <point x="50" y="189"/>
      <point x="74" y="135"/>
      <point x="104" y="109" type="curve" smooth="yes"/>
      <point x="366" y="-121" type="line" smooth="yes"/>
      <point x="403" y="-154"/>
      <point x="472" y="-168"/>
    </contour>
  </outline>
</glyph>
<glyph name="agrave" format="1">
  <advance width="1020"/>
  <unicode hex="00E0"/>
  <outline>
    <contour>
      <point x="810" y="-164" type="curve" smooth="yes"/>
      <point x="896" y="-164"/>
      <point x="970" y="-90"/>
      <point x="970" y="-4" type="curve" smooth="yes"/>
      <point x="970" y="499" type="line" smooth="yes"/>
      <point x="970" y="524"/>
      <point x="959" y="562"/>
      <point x="946" y="583" type="curve" smooth="yes"/>
      <point x="765" y="879" type="line" smooth="yes"/>
      <point x="746" y="911"/>
      <point x="707" y="938"/>
      <point x="668" y="949" type="curve"/>
      <point x="661" y="994"/>
      <point x="638" y="1035"/>
      <point x="599" y="1061" type="curve" smooth="yes"/>
      <point x="315" y="1250" type="line"/>
      <point x="299" y="1261" type="line" smooth="yes"/>
      <point x="227" y="1309"/>
      <point x="125" y="1289"/>
      <point x="77" y="1217" type="curve" smooth="yes"/>
      <point x="29" y="1145"/>
      <point x="49" y="1043"/>
      <point x="121" y="995" type="curve" smooth="yes"/>
      <point x="138" y="984" type="line"/>
      <point x="231" y="922" type="line"/>
      <point x="187" y="901"/>
      <point x="150" y="860"/>
      <point x="139" y="815" type="curve" smooth="yes"/>
      <point x="55" y="478" type="line" smooth="yes"/>
      <point x="52" y="466"/>
      <point x="50" y="448"/>
      <point x="50" y="437" type="curve" smooth="yes"/>
      <point x="55" y="96" type="line" smooth="yes"/>
      <point x="57" y="-58"/>
      <point x="219" y="-124"/>
      <point x="328" y="-14" type="curve" smooth="yes"/>
      <point x="527" y="186" type="line"/>
      <point x="650" y="186" type="line"/>
      <point x="650" y="-4" type="line" smooth="yes"/>
      <point x="650" y="-90"/>
      <point x="724" y="-164"/>
    </contour>
    <contour>
      <point x="460" y="506" type="line" smooth="yes"/>
      <point x="438" y="506"/>
      <point x="411" y="498"/>
      <point x="387" y="486" type="curve"/>
      <point x="421" y="623" type="line"/>
      <point x="542" y="630" type="line"/>
      <point x="618" y="506" type="line"/>
    </contour>
  </outline>
</glyph>
<glyph name="egrave" format="1">
  <advance width="1023"/>
  <unicode hex="00E8"/>
  <outline>
    <contour>
      <point x="614" y="-160" type="line" smooth="yes"/>
      <point x="628" y="-160"/>
      <point x="643" y="-158"/>
      <point x="656" y="-154" type="curve"/>
      <point x="683" y="-147"/>
      <point x="708" y="-134"/>
      <point x="729" y="-114" type="curve" smooth="yes"/>
      <point x="927" y="82" type="line" smooth="yes"/>
      <point x="988" y="143"/>
      <point x="988" y="247"/>
      <point x="928" y="309" type="curve" smooth="yes"/>
      <point x="867" y="370"/>
      <point x="763" y="370"/>
      <point x="701" y="310" type="curve" smooth="yes"/>
      <point x="555" y="165" type="line"/>
      <point x="481" y="197" type="line"/>
      <point x="566" y="300" type="line" smooth="yes"/>
      <point x="614" y="358"/>
      <point x="612" y="451"/>
      <point x="562" y="508" type="curve" smooth="yes"/>
      <point x="480" y="601" type="line"/>
      <point x="514" y="617" type="line"/>
      <point x="721" y="471" type="line" smooth="yes"/>
      <point x="792" y="421"/>
      <point x="894" y="439"/>
      <point x="944" y="510" type="curve" smooth="yes"/>
      <point x="994" y="581"/>
      <point x="976" y="683"/>
      <point x="905" y="733" type="curve" smooth="yes"/>
      <point x="666" y="901" type="line"/>
      <point x="676" y="961"/>
      <point x="651" y="1026"/>
      <point x="598" y="1061" type="curve" smooth="yes"/>
      <point x="314" y="1250" type="line"/>
      <point x="298" y="1261" type="line" smooth="yes"/>
      <point x="226" y="1309"/>
      <point x="124" y="1289"/>
      <point x="76" y="1217" type="curve" smooth="yes"/>
      <point x="28" y="1145"/>
      <point x="48" y="1043"/>
      <point x="120" y="995" type="curve" smooth="yes"/>
      <point x="137" y="984" type="line"/>
      <point x="304" y="872" type="line"/>
      <point x="150" y="803" type="line" smooth="yes"/>
      <point x="46" y="756"/>
      <point x="21" y="637"/>
      <point x="96" y="551" type="curve" smooth="yes"/>
      <point x="232" y="398" type="line"/>
      <point x="97" y="235" type="line" smooth="yes"/>
      <point x="25" y="147"/>
      <point x="53" y="30"/>
      <point x="158" y="-14" type="curve" smooth="yes"/>
      <point x="473" y="-147" type="line" smooth="yes"/>
      <point x="489" y="-154"/>
      <point x="517" y="-160"/>
      <point x="535" y="-160" type="curve" smooth="yes"/>
    </contour>
  </outline>
</glyph>
<glyph name="igrave" format="1">
  <advance width="1019"/>
  <unicode hex="00EC"/>
  <outline>
    <contour>
      <point x="210" y="-161" type="curve" smooth="yes"/>
      <point x="560" y="-161" type="line" smooth="yes"/>
      <point x="661" y="-161"/>
      <point x="733" y="-78"/>
      <point x="718" y="22" type="curve" smooth="yes"/>
      <point x="670" y="352" type="line"/>
      <point x="664" y="571" type="line"/>
      <point x="868" y="650" type="line" smooth="yes"/>
      <point x="948" y="681"/>
      <point x="990" y="776"/>
      <point x="959" y="857" type="curve" smooth="yes"/>
      <point x="928" y="937"/>
      <point x="833" y="979"/>
      <point x="752" y="948" type="curve" smooth="yes"/>
      <point x="673" y="918" type="line"/>
      <point x="676" y="973"/>
      <point x="651" y="1029"/>
      <point x="603" y="1061" type="curve" smooth="yes"/>
      <point x="319" y="1250" type="line"/>
      <point x="303" y="1261" type="line" smooth="yes"/>
      <point x="231" y="1309"/>
      <point x="129" y="1289"/>
      <point x="81" y="1217" type="curve" smooth="yes"/>
      <point x="33" y="1145"/>
      <point x="53" y="1043"/>
      <point x="125" y="995" type="curve" smooth="yes"/>
      <point x="142" y="984" type="line"/>
      <point x="406" y="807" type="line"/>
      <point x="367" y="776"/>
      <point x="340" y="724"/>
      <point x="341" y="676" type="curve" smooth="yes"/>
      <point x="350" y="335" type="line" smooth="yes"/>
      <point x="350" y="329"/>
      <point x="351" y="321"/>
      <point x="352" y="315" type="curve" smooth="yes"/>
      <point x="375" y="159" type="line"/>
      <point x="210" y="159" type="line" smooth="yes"/>
      <point x="124" y="159"/>
      <point x="50" y="85"/>
      <point x="50" y="-1" type="curve" smooth="yes"/>
      <point x="50" y="-87"/>
      <point x="124" y="-161"/>
    </contour>
  </outline>
</glyph>
<glyph name="iacute" format="1">
  <advance width="1023"/>
  <unicode hex="00ED"/>
  <outline>
    <contour>
      <point x="210" y="-161" type="curve" smooth="yes"/>
      <point x="560" y="-161" type="line" smooth="yes"/>
      <point x="661" y="-161"/>
      <point x="733" y="-78"/>
      <point x="718" y="22" type="curve" smooth="yes"/>
      <point x="670" y="352" type="line"/>
      <point x="664" y="571" type="line"/>
      <point x="868" y="650" type="line" smooth="yes"/>
      <point x="948" y="681"/>
      <point x="990" y="776"/>
      <point x="959" y="857" type="curve" smooth="yes"/>
      <point x="940" y="908"/>
      <point x="894" y="944"/>
      <point x="843" y="955" type="curve"/>
      <point x="886" y="984" type="line"/>
      <point x="903" y="995" type="line" smooth="yes"/>
      <point x="975" y="1043"/>
      <point x="995" y="1145"/>
      <point x="947" y="1217" type="curve" smooth="yes"/>
      <point x="899" y="1289"/>
      <point x="797" y="1309"/>
      <point x="725" y="1261" type="curve" smooth="yes"/>
      <point x="709" y="1250" type="line"/>
      <point x="425" y="1061" type="line" smooth="yes"/>
      <point x="353" y="1013"/>
      <point x="333" y="911"/>
      <point x="381" y="839" type="curve" smooth="yes"/>
      <point x="389" y="828"/>
      <point x="398" y="817"/>
      <point x="408" y="809" type="curve"/>
      <point x="368" y="777"/>
      <point x="340" y="725"/>
      <point x="341" y="676" type="curve" smooth="yes"/>
      <point x="350" y="335" type="line" smooth="yes"/>
      <point x="350" y="329"/>
      <point x="351" y="321"/>
      <point x="352" y="315" type="curve" smooth="yes"/>
      <point x="375" y="159" type="line"/>
      <point x="210" y="159" type="line" smooth="yes"/>
      <point x="124" y="159"/>
      <point x="50" y="85"/>
      <point x="50" y="-1" type="curve" smooth="yes"/>
      <point x="50" y="-87"/>
      <point x="124" y="-161"/>
    </contour>
  </outline>
</glyph>
<glyph name="ntilde" format="1">
  <advance width="1024"/>
  <unicode hex="00F1"/>
  <outline>
    <contour>
      <point x="370" y="-1" type="curve" smooth="yes"/>
      <point x="370" y="109" type="line"/>
      <point x="370" y="206" type="line"/>
      <point x="384" y="179"/>
      <point x="405" y="156"/>
      <point x="428" y="142" type="curve" smooth="yes"/>
      <point x="728" y="-38" type="line" smooth="yes"/>
      <point x="843" y="-108"/>
      <point x="970" y="-36"/>
      <point x="970" y="99" type="curve" smooth="yes"/>
      <point x="970" y="799" type="line" smooth="yes"/>
      <point x="970" y="885"/>
      <point x="896" y="959"/>
      <point x="810" y="959" type="curve" smooth="yes"/>
      <point x="724" y="959"/>
      <point x="650" y="885"/>
      <point x="650" y="799" type="curve" smooth="yes"/>
      <point x="650" y="689" type="line"/>
      <point x="636" y="715"/>
      <point x="617" y="739"/>
      <point x="595" y="752" type="curve" smooth="yes"/>
      <point x="408" y="870" type="line"/>
      <point x="545" y="968" type="line"/>
      <point x="814" y="968" type="line" smooth="yes"/>
      <point x="900" y="968"/>
      <point x="974" y="1042"/>
      <point x="974" y="1128" type="curve" smooth="yes"/>
      <point x="974" y="1214"/>
      <point x="900" y="1288"/>
      <point x="814" y="1288" type="curve" smooth="yes"/>
      <point x="494" y="1288" type="line" smooth="yes"/>
      <point x="466" y="1288"/>
      <point x="424" y="1275"/>
      <point x="401" y="1258" type="curve" smooth="yes"/>
      <point x="121" y="1058" type="line" smooth="yes"/>
      <point x="58" y="1013"/>
      <point x="38" y="927"/>
      <point x="70" y="859" type="curve"/>
      <point x="64" y="842"/>
      <point x="61" y="824"/>
      <point x="60" y="804" type="curve" smooth="yes"/>
      <point x="50" y="464" type="line"/>
      <point x="50" y="109" type="line"/>
      <point x="50" y="-1" type="line" smooth="yes"/>
      <point x="50" y="-87"/>
      <point x="124" y="-161"/>
      <point x="210" y="-161" type="curve" smooth="yes"/>
      <point x="296" y="-161"/>
      <point x="370" y="-87"/>
    </contour>
  </outline>
</glyph>
<glyph name="divide" format="1">
  <advance width="422"/>
  <unicode hex="00F7"/>
  <outline>
    <contour>
      <point x="210" y="423" type="curve" smooth="yes"/>
      <point x="296" y="423"/>
      <point x="370" y="497"/>
      <point x="370" y="583" type="curve" smooth="yes"/>
      <point x="370" y="592" type="line" smooth="yes"/>
      <point x="370" y="678"/>
      <point x="296" y="752"/>
      <point x="210" y="752" type="curve" smooth="yes"/>
      <point x="124" y="752"/>
      <point x="50" y="678"/>
      <point x="50" y="592" type="curve" smooth="yes"/>
      <point x="50" y="583" type="line" smooth="yes"/>
      <point x="50" y="497"/>
      <point x="124" y="423"/>
    </contour>
    <contour>
      <point x="212" y="-159" type="curve" smooth="yes"/>
      <point x="298" y="-159"/>
      <point x="372" y="-85"/>
      <point x="372" y="1" type="curve" smooth="yes"/>
      <point x="372" y="5" type="line" smooth="yes"/>
      <point x="372" y="91"/>
      <point x="298" y="165"/>
      <point x="212" y="165" type="curve" smooth="yes"/>
      <point x="126" y="165"/>
      <point x="52" y="91"/>
      <point x="52" y="5" type="curve" smooth="yes"/>
      <point x="52" y="1" type="line" smooth="yes"/>
      <point x="52" y="-85"/>
      <point x="126" y="-159"/>
    </contour>
  </outline>
</glyph>
<glyph name="oslash" format="1">
  <advance width="1018"/>
  <unicode hex="00F8"/>
  <outline>
    <contour>
      <point x="337" y="-95" type="curve" smooth="yes"/>
      <point x="376" y="-43" type="line"/>
      <point x="398" y="-53"/>
      <point x="421" y="-59"/>
      <point x="441" y="-59" type="curve" smooth="yes"/>
      <point x="594" y="-59" type="line" smooth="yes"/>
      <point x="600" y="-59"/>
      <point x="607" y="-59"/>
      <point x="613" y="-58" type="curve"/>
      <point x="660" y="-55"/>
      <point x="706" y="-32"/>
      <point x="735" y="9" type="curve" smooth="yes"/>
      <point x="933" y="289" type="line" smooth="yes"/>
      <point x="961" y="329"/>
      <point x="969" y="399"/>
      <point x="949" y="445" type="curve" smooth="yes"/>
      <point x="872" y="619" type="line"/>
      <point x="937" y="705" type="line" smooth="yes"/>
      <point x="989" y="774"/>
      <point x="974" y="877"/>
      <point x="905" y="929" type="curve" smooth="yes"/>
      <point x="836" y="981"/>
      <point x="733" y="966"/>
      <point x="681" y="897" type="curve" smooth="yes"/>
      <point x="650" y="855" type="line"/>
      <point x="313" y="849" type="line" smooth="yes"/>
      <point x="250" y="848"/>
      <point x="183" y="799"/>
      <point x="163" y="739" type="curve" smooth="yes"/>
      <point x="57" y="410" type="line" smooth="yes"/>
      <point x="41" y="362"/>
      <point x="56" y="292"/>
      <point x="90" y="254" type="curve" smooth="yes"/>
      <point x="149" y="188" type="line"/>
      <point x="81" y="97" type="line" smooth="yes"/>
      <point x="29" y="28"/>
      <point x="44" y="-75"/>
      <point x="113" y="-127" type="curve" smooth="yes"/>
      <point x="182" y="-179"/>
      <point x="285" y="-164"/>
    </contour>
  </outline>
</glyph>
<glyph name="uacute" format="1">
  <advance width="1020"/>
  <unicode hex="00FA"/>
  <outline>
    <contour>
      <point x="519" y="-154" type="curve" smooth="yes"/>
      <point x="845" y="-53" type="line" smooth="yes"/>
      <point x="906" y="-35"/>
      <point x="956" y="31"/>
      <point x="958" y="95" type="curve" smooth="yes"/>
      <point x="969" y="449" type="line"/>
      <point x="969" y="799" type="line" smooth="yes"/>
      <point x="969" y="875"/>
      <point x="913" y="940"/>
      <point x="841" y="956" type="curve"/>
      <point x="883" y="984" type="line"/>
      <point x="900" y="995" type="line" smooth="yes"/>
      <point x="972" y="1043"/>
      <point x="992" y="1145"/>
      <point x="944" y="1217" type="curve" smooth="yes"/>
      <point x="896" y="1289"/>
      <point x="794" y="1309"/>
      <point x="722" y="1261" type="curve" smooth="yes"/>
      <point x="706" y="1250" type="line"/>
      <point x="422" y="1061" type="line" smooth="yes"/>
      <point x="350" y="1013"/>
      <point x="330" y="911"/>
      <point x="378" y="839" type="curve" smooth="yes"/>
      <point x="426" y="767"/>
      <point x="528" y="747"/>
      <point x="600" y="795" type="curve" smooth="yes"/>
      <point x="652" y="830" type="line"/>
      <point x="650" y="820"/>
      <point x="649" y="810"/>
      <point x="649" y="799" type="curve" smooth="yes"/>
      <point x="649" y="449" type="line"/>
      <point x="642" y="219" type="line"/>
      <point x="510" y="178" type="line"/>
      <point x="370" y="301" type="line"/>
      <point x="370" y="799" type="line" smooth="yes"/>
      <point x="370" y="885"/>
      <point x="296" y="959"/>
      <point x="210" y="959" type="curve" smooth="yes"/>
      <point x="124" y="959"/>
      <point x="50" y="885"/>
      <point x="50" y="799" type="curve" smooth="yes"/>
      <point x="50" y="229" type="line" smooth="yes"/>
      <point x="50" y="189"/>
      <point x="74" y="135"/>
      <point x="104" y="109" type="curve" smooth="yes"/>
      <point x="366" y="-121" type="line" smooth="yes"/>
      <point x="403" y="-154"/>
      <point x="472" y="-168"/>
    </contour>
  </outline>
</glyph>
<glyph name="ucircumflex" format="1">
  <advance width="1020"/>
  <unicode hex="00FB"/>
  <outline>
    <contour>
      <point x="519" y="-154" type="curve" smooth="yes"/>
      <point x="845" y="-53" type="line" smooth="yes"/>
      <point x="906" y="-35"/>
      <point x="956" y="31"/>
      <point x="958" y="95" type="curve" smooth="yes"/>
      <point x="969" y="449" type="line"/>
      <point x="969" y="799" type="line" smooth="yes"/>
      <point x="969" y="821"/>
      <point x="964" y="842"/>
      <point x="956" y="861" type="curve"/>
      <point x="988" y="930"/>
      <point x="965" y="1018"/>
      <point x="900" y="1061" type="curve" smooth="yes"/>
      <point x="876" y="1077" type="line"/>
      <point x="576" y="1255" type="line" smooth="yes"/>
      <point x="528" y="1283"/>
      <point x="452" y="1281"/>
      <point x="406" y="1250" type="curve" smooth="yes"/>
      <point x="122" y="1061" type="line" smooth="yes"/>
      <point x="58" y="1018"/>
      <point x="35" y="933"/>
      <point x="64" y="864" type="curve"/>
      <point x="55" y="844"/>
      <point x="50" y="822"/>
      <point x="50" y="799" type="curve" smooth="yes"/>
      <point x="50" y="229" type="line" smooth="yes"/>
      <point x="50" y="189"/>
      <point x="74" y="135"/>
      <point x="104" y="109" type="curve" smooth="yes"/>
      <point x="366" y="-121" type="line" smooth="yes"/>
      <point x="403" y="-154"/>
      <point x="472" y="-168"/>
    </contour>
    <contour>
      <point x="370" y="799" type="line" smooth="yes"/>
      <point x="370" y="812"/>
      <point x="368" y="826"/>
      <point x="365" y="838" type="curve"/>
      <point x="499" y="928" type="line"/>
      <point x="654" y="836" type="line"/>
      <point x="651" y="824"/>
      <point x="649" y="812"/>
      <point x="649" y="799" type="curve" smooth="yes"/>
      <point x="649" y="449" type="line"/>
      <point x="642" y="219" type="line"/>
      <point x="510" y="178" type="line"/>
      <point x="370" y="301" type="line"/>
    </contour>
  </outline>
</glyph>
<glyph name="circumflex" format="1">
  <advance width="1018"/>
  <unicode hex="02C6"/>
  <outline>
    <contour>
      <point x="942" y="839" type="curve" smooth="yes"/>
      <point x="990" y="911"/>
      <point x="970" y="1013"/>
      <point x="898" y="1061" type="curve" smooth="yes"/>
      <point x="874" y="1077" type="line"/>
      <point x="574" y="1255" type="line" smooth="yes"/>
      <point x="526" y="1283"/>
      <point x="450" y="1281"/>
      <point x="404" y="1250" type="curve" smooth="yes"/>
      <point x="120" y="1061" type="line" smooth="yes"/>
      <point x="48" y="1013"/>
      <point x="28" y="911"/>
      <point x="76" y="839" type="curve" smooth="yes"/>
      <point x="124" y="767"/>
      <point x="226" y="747"/>
      <point x="298" y="795" type="curve" smooth="yes"/>
      <point x="497" y="928" type="line"/>
      <point x="711" y="801" type="line"/>
      <point x="720" y="795" type="line" smooth="yes"/>
      <point x="792" y="747"/>
      <point x="894" y="767"/>
    </contour>
  </outline>
</glyph>
<glyph name="tilde" format="1">
  <advance width="1019"/>
  <unicode hex="02DC"/>
  <outline>
    <contour>
      <point x="302" y="798" type="curve" smooth="yes"/>
      <point x="540" y="968" type="line"/>
      <point x="809" y="968" type="line" smooth="yes"/>
      <point x="895" y="968"/>
      <point x="969" y="1042"/>
      <point x="969" y="1128" type="curve" smooth="yes"/>
      <point x="969" y="1214"/>
      <point x="895" y="1288"/>
      <point x="809" y="1288" type="curve" smooth="yes"/>
      <point x="489" y="1288" type="line" smooth="yes"/>
      <point x="461" y="1288"/>
      <point x="419" y="1275"/>
      <point x="396" y="1258" type="curve" smooth="yes"/>
      <point x="116" y="1058" type="line" smooth="yes"/>
      <point x="46" y="1008"/>
      <point x="29" y="905"/>
      <point x="79" y="835" type="curve" smooth="yes"/>
      <point x="129" y="765"/>
      <point x="232" y="748"/>
    </contour>
  </outline>
</glyph>
<glyph name="endash" format="1">
  <advance width="820"/>
  <unicode hex="2013"/>
  <outline>
    <contour>
      <point x="210" y="112" type="curve" smooth="yes"/>
      <point x="610" y="112" type="line" smooth="yes"/>
      <point x="696" y="112"/>
      <point x="770" y="186"/>
      <point x="770" y="272" type="curve" smooth="yes"/>
      <point x="770" y="358"/>
      <point x="696" y="432"/>
      <point x="610" y="432" type="curve" smooth="yes"/>
      <point x="210" y="432" type="line" smooth="yes"/>
      <point x="124" y="432"/>
      <point x="50" y="358"/>
      <point x="50" y="272" type="curve" smooth="yes"/>
      <point x="50" y="186"/>
      <point x="124" y="112"/>
    </contour>
  </outline>
</glyph>
<glyph name="quotesinglbase" format="1">
  <advance width="519"/>
  <unicode hex="201A"/>
  <outline>
    <contour>
      <point x="381" y="278" type="curve" smooth="yes"/>
      <point x="303" y="317"/>
      <point x="205" y="284"/>
      <point x="166" y="207" type="curve" smooth="yes"/>
      <point x="66" y="7" type="line" smooth="yes"/>
      <point x="27" y="-71"/>
      <point x="60" y="-169"/>
      <point x="137" y="-208" type="curve" smooth="yes"/>
      <point x="215" y="-247"/>
      <point x="313" y="-214"/>
      <point x="352" y="-137" type="curve" smooth="yes"/>
      <point x="452" y="63" type="line" smooth="yes"/>
      <point x="491" y="141"/>
      <point x="458" y="239"/>
    </contour>
  </outline>
</glyph>
